<svg xmlns="http://www.w3.org/2000/svg" version="1.1" xmlns:xlink="http://www.w3.org/1999/xlink" xmlns:svgjs="http://svgjs.dev/svgjs" width="223.43" height="312.09"><svg id="SvgjsSvg1030" data-name="Layer 2" xmlns="http://www.w3.org/2000/svg" viewBox="0 0 223.43 312.09">
  <defs>
    <style>
      .cls-1, .cls-2, .cls-3, .cls-4, .cls-5, .cls-6, .cls-7 {
        fill: none;
        stroke: #f4eac6;
      }

      .cls-1, .cls-2, .cls-3, .cls-7 {
        stroke-miterlimit: 10;
      }

      .cls-1, .cls-2, .cls-4, .cls-5, .cls-6 {
        stroke-linecap: round;
      }

      .cls-2, .cls-3, .cls-4, .cls-5 {
        stroke-width: 1.5px;
      }

      .cls-4, .cls-5, .cls-6 {
        stroke-linejoin: round;
      }

      .cls-4, .cls-6 {
        stroke-dasharray: 0 5;
      }

      .cls-5 {
        stroke-dasharray: 0 3;
      }

      .cls-6 {
        stroke-width: 2px;
      }

      .cls-8 {
        fill: #f4eac6;
      }

      .cls-9 {
        fill: #ff6052;
      }
    </style>
  </defs>
  <g id="SvgjsG1029">
    <g>
      <g>
        <rect class="cls-9" width="223.43" height="312.09" rx="8.43" ry="8.43"></rect>
        <path class="cls-8" d="M-34.55,52.33h292.53c.98,0,1.78.8,1.78,1.78v203.87c0,.98-.8,1.78-1.78,1.78H-34.55c-.98,0-1.78-.8-1.78-1.78V54.11c0-.98.8-1.78,1.78-1.78Z" transform="translate(267.76 44.33) rotate(90)"></path>
        <rect class="cls-9" x="-30.33" y="58.33" width="284.09" height="195.43" rx="1.14" ry="1.14" transform="translate(267.76 44.33) rotate(90)"></rect>
        <rect class="cls-7" x="-27.33" y="61.33" width="278.09" height="189.43" rx="1.78" ry="1.78" transform="translate(267.76 44.33) rotate(90)"></rect>
        <g>
          <line class="cls-2" x1="17.26" y1="46.54" x2="46.3" y2="17.33"></line>
          <line class="cls-2" x1="17.28" y1="265.69" x2="46.3" y2="294.69"></line>
        </g>
        <g>
          <line class="cls-2" x1="206.15" y1="46.27" x2="177.28" y2="17.31"></line>
          <line class="cls-2" x1="206.17" y1="265.97" x2="177.34" y2="294.8"></line>
        </g>
      </g>
      <g>
        <g>
          <g>
            <g>
              <g>
                <path class="cls-3" d="M27.63,80.93s-7.84-1.21-5.54-15.69"></path>
                <path class="cls-3" d="M37.99,70.68s-1.21-7.84-15.69-5.54"></path>
                <polyline class="cls-3" points="33.78 80.98 18.39 80.98 18.39 61.39 37.97 61.39 37.97 76.65"></polyline>
                <line class="cls-3" x1="18.39" y1="61.39" x2="34.92" y2="77.93"></line>
                <path class="cls-3" d="M22.03,73.98s4.55-3,8.4-.56"></path>
                <path class="cls-3" d="M31.21,65.24s-3,4.55-.56,8.4"></path>
              </g>
              <g>
                <path class="cls-3" d="M48.35,80.93s7.84-1.21,5.54-15.69"></path>
                <path class="cls-3" d="M37.99,70.68s1.21-7.84,15.69-5.54"></path>
                <polyline class="cls-3" points="42.3 80.98 57.59 80.98 57.59 61.39 38.01 61.39 38.01 76.66"></polyline>
                <line class="cls-3" x1="57.59" y1="61.39" x2="41.08" y2="77.91"></line>
                <path class="cls-3" d="M53.95,73.98s-4.55-3-8.4-.56"></path>
                <path class="cls-3" d="M44.77,65.24s3,4.55.56,8.4"></path>
              </g>
              <g>
                <path class="cls-3" d="M48.35,80.85s7.84,1.21,5.54,15.69"></path>
                <path class="cls-3" d="M37.99,91.1s1.21,7.84,15.69,5.54"></path>
                <polyline class="cls-3" points="42.22 80.8 57.59 80.8 57.59 100.39 38.01 100.39 38.01 85.07"></polyline>
                <line class="cls-3" x1="57.59" y1="100.39" x2="41" y2="83.8"></line>
                <path class="cls-3" d="M53.95,87.8s-4.55,3-8.4.56"></path>
                <path class="cls-3" d="M44.77,96.54s3-4.55.56-8.4"></path>
              </g>
              <g>
                <path class="cls-3" d="M27.63,80.85s-7.84,1.21-5.54,15.69"></path>
                <path class="cls-3" d="M37.99,91.1s-1.21,7.84-15.69,5.54"></path>
                <polyline class="cls-3" points="33.76 80.8 18.39 80.8 18.39 100.39 37.97 100.39 37.97 85.17"></polyline>
                <line class="cls-3" x1="18.39" y1="100.39" x2="34.93" y2="83.84"></line>
                <path class="cls-3" d="M22.03,87.8s4.55,3,8.4.56"></path>
                <path class="cls-3" d="M31.21,96.54s-3-4.55-.56-8.4"></path>
              </g>
            </g>
            <path class="cls-3" d="M42.19,80.89c0,2.32-1.88,4.2-4.2,4.2s-4.2-1.88-4.2-4.2,1.88-4.2,4.2-4.2,4.2,1.88,4.2,4.2Z"></path>
          </g>
          <path class="cls-3" d="M65.56,81.14c0,1.65-1.33,2.98-2.98,2.98s-2.98-1.33-2.98-2.98,1.33-2.98,2.98-2.98,2.98,1.33,2.98,2.98Z"></path>
          <g>
            <g>
              <g>
                <path class="cls-3" d="M76.78,80.93s-7.84-1.21-5.54-15.69"></path>
                <path class="cls-3" d="M87.14,70.68s-1.21-7.84-15.69-5.54"></path>
                <polyline class="cls-3" points="82.93 80.98 67.53 80.98 67.53 61.39 87.12 61.39 87.12 76.65"></polyline>
                <line class="cls-3" x1="67.53" y1="61.39" x2="84.07" y2="77.93"></line>
                <path class="cls-3" d="M71.18,73.98s4.55-3,8.4-.56"></path>
                <path class="cls-3" d="M80.36,65.24s-3,4.55-.56,8.4"></path>
              </g>
              <g>
                <path class="cls-3" d="M97.5,80.93s7.84-1.21,5.54-15.69"></path>
                <path class="cls-3" d="M87.14,70.68s1.21-7.84,15.69-5.54"></path>
                <polyline class="cls-3" points="91.45 80.98 106.74 80.98 106.74 61.39 87.16 61.39 87.16 76.66"></polyline>
                <line class="cls-3" x1="106.74" y1="61.39" x2="90.23" y2="77.91"></line>
                <path class="cls-3" d="M103.1,73.98s-4.55-3-8.4-.56"></path>
                <path class="cls-3" d="M93.92,65.24s3,4.55.56,8.4"></path>
              </g>
              <g>
                <path class="cls-3" d="M97.5,80.85s7.84,1.21,5.54,15.69"></path>
                <path class="cls-3" d="M87.14,91.1s1.21,7.84,15.69,5.54"></path>
                <polyline class="cls-3" points="91.36 80.8 106.74 80.8 106.74 100.39 87.16 100.39 87.16 85.07"></polyline>
                <line class="cls-3" x1="106.74" y1="100.39" x2="90.15" y2="83.8"></line>
                <path class="cls-3" d="M103.1,87.8s-4.55,3-8.4.56"></path>
                <path class="cls-3" d="M93.92,96.54s3-4.55.56-8.4"></path>
              </g>
              <g>
                <path class="cls-3" d="M76.78,80.85s-7.84,1.21-5.54,15.69"></path>
                <path class="cls-3" d="M87.14,91.1s-1.21,7.84-15.69,5.54"></path>
                <polyline class="cls-3" points="82.91 80.8 67.53 80.8 67.53 100.39 87.12 100.39 87.12 85.17"></polyline>
                <line class="cls-3" x1="67.53" y1="100.39" x2="84.08" y2="83.84"></line>
                <path class="cls-3" d="M71.18,87.8s4.55,3,8.4.56"></path>
                <path class="cls-3" d="M80.36,96.54s-3-4.55-.56-8.4"></path>
              </g>
            </g>
            <path class="cls-3" d="M91.34,80.89c0,2.32-1.88,4.2-4.2,4.2s-4.2-1.88-4.2-4.2,1.88-4.2,4.2-4.2,4.2,1.88,4.2,4.2Z"></path>
          </g>
          <path class="cls-3" d="M114.71,81.14c0,1.65-1.33,2.98-2.98,2.98s-2.98-1.33-2.98-2.98,1.33-2.98,2.98-2.98,2.98,1.33,2.98,2.98Z"></path>
          <g>
            <g>
              <g>
                <path class="cls-3" d="M125.93,80.93s-7.84-1.21-5.54-15.69"></path>
                <path class="cls-3" d="M136.29,70.68s-1.21-7.84-15.69-5.54"></path>
                <polyline class="cls-3" points="132.08 80.98 116.68 80.98 116.68 61.39 136.27 61.39 136.27 76.65"></polyline>
                <line class="cls-3" x1="116.68" y1="61.39" x2="133.22" y2="77.93"></line>
                <path class="cls-3" d="M120.33,73.98s4.55-3,8.4-.56"></path>
                <path class="cls-3" d="M129.51,65.24s-3,4.55-.56,8.4"></path>
              </g>
              <g>
                <path class="cls-3" d="M146.65,80.93s7.84-1.21,5.54-15.69"></path>
                <path class="cls-3" d="M136.29,70.68s1.21-7.84,15.69-5.54"></path>
                <polyline class="cls-3" points="140.6 80.98 155.89 80.98 155.89 61.39 136.31 61.39 136.31 76.66"></polyline>
                <line class="cls-3" x1="155.89" y1="61.39" x2="139.37" y2="77.91"></line>
                <path class="cls-3" d="M152.24,73.98s-4.55-3-8.4-.56"></path>
                <path class="cls-3" d="M143.07,65.24s3,4.55.56,8.4"></path>
              </g>
              <g>
                <path class="cls-3" d="M146.65,80.85s7.84,1.21,5.54,15.69"></path>
                <path class="cls-3" d="M136.29,91.1s1.21,7.84,15.69,5.54"></path>
                <polyline class="cls-3" points="140.51 80.8 155.89 80.8 155.89 100.39 136.31 100.39 136.31 85.07"></polyline>
                <line class="cls-3" x1="155.89" y1="100.39" x2="139.3" y2="83.8"></line>
                <path class="cls-3" d="M152.24,87.8s-4.55,3-8.4.56"></path>
                <path class="cls-3" d="M143.07,96.54s3-4.55.56-8.4"></path>
              </g>
              <g>
                <path class="cls-3" d="M125.93,80.85s-7.84,1.21-5.54,15.69"></path>
                <path class="cls-3" d="M136.29,91.1s-1.21,7.84-15.69,5.54"></path>
                <polyline class="cls-3" points="132.06 80.8 116.68 80.8 116.68 100.39 136.27 100.39 136.27 85.17"></polyline>
                <line class="cls-3" x1="116.68" y1="100.39" x2="133.23" y2="83.84"></line>
                <path class="cls-3" d="M120.33,87.8s4.55,3,8.4.56"></path>
                <path class="cls-3" d="M129.51,96.54s-3-4.55-.56-8.4"></path>
              </g>
            </g>
            <path class="cls-3" d="M140.48,80.89c0,2.32-1.88,4.2-4.2,4.2s-4.2-1.88-4.2-4.2,1.88-4.2,4.2-4.2,4.2,1.88,4.2,4.2Z"></path>
          </g>
          <path class="cls-3" d="M163.86,81.14c0,1.65-1.33,2.98-2.98,2.98s-2.98-1.33-2.98-2.98,1.33-2.98,2.98-2.98,2.98,1.33,2.98,2.98Z"></path>
          <g>
            <g>
              <g>
                <path class="cls-3" d="M175.07,80.93s-7.84-1.21-5.54-15.69"></path>
                <path class="cls-3" d="M185.43,70.68s-1.21-7.84-15.69-5.54"></path>
                <polyline class="cls-3" points="181.23 80.98 165.83 80.98 165.83 61.39 185.42 61.39 185.42 76.65"></polyline>
                <line class="cls-3" x1="165.83" y1="61.39" x2="182.37" y2="77.93"></line>
                <path class="cls-3" d="M169.48,73.98s4.55-3,8.4-.56"></path>
                <path class="cls-3" d="M178.65,65.24s-3,4.55-.56,8.4"></path>
              </g>
              <g>
                <path class="cls-3" d="M195.8,80.93s7.84-1.21,5.54-15.69"></path>
                <path class="cls-3" d="M185.44,70.68s1.21-7.84,15.69-5.54"></path>
                <polyline class="cls-3" points="189.75 80.98 205.04 80.98 205.04 61.39 185.45 61.39 185.45 76.66"></polyline>
                <line class="cls-3" x1="205.04" y1="61.39" x2="188.52" y2="77.91"></line>
                <path class="cls-3" d="M201.39,73.98s-4.55-3-8.4-.56"></path>
                <path class="cls-3" d="M192.22,65.24s3,4.55.56,8.4"></path>
              </g>
              <g>
                <path class="cls-3" d="M195.8,80.85s7.84,1.21,5.54,15.69"></path>
                <path class="cls-3" d="M185.44,91.1s1.21,7.84,15.69,5.54"></path>
                <polyline class="cls-3" points="189.66 80.8 205.04 80.8 205.04 100.39 185.45 100.39 185.45 85.07"></polyline>
                <line class="cls-3" x1="205.04" y1="100.39" x2="188.45" y2="83.8"></line>
                <path class="cls-3" d="M201.39,87.8s-4.55,3-8.4.56"></path>
                <path class="cls-3" d="M192.22,96.54s3-4.55.56-8.4"></path>
              </g>
              <g>
                <path class="cls-3" d="M175.07,80.85s-7.84,1.21-5.54,15.69"></path>
                <path class="cls-3" d="M185.43,91.1s-1.21,7.84-15.69,5.54"></path>
                <polyline class="cls-3" points="181.21 80.8 165.83 80.8 165.83 100.39 185.42 100.39 185.42 85.17"></polyline>
                <line class="cls-3" x1="165.83" y1="100.39" x2="182.38" y2="83.84"></line>
                <path class="cls-3" d="M169.48,87.8s4.55,3,8.4.56"></path>
                <path class="cls-3" d="M178.65,96.54s-3-4.55-.56-8.4"></path>
              </g>
            </g>
            <path class="cls-3" d="M189.63,80.89c0,2.32-1.88,4.2-4.2,4.2s-4.2-1.88-4.2-4.2,1.88-4.2,4.2-4.2,4.2,1.88,4.2,4.2Z"></path>
          </g>
        </g>
        <g>
          <g>
            <g>
              <g>
                <path class="cls-3" d="M27.63,231.16s-7.84-1.21-5.54-15.69"></path>
                <path class="cls-3" d="M37.99,220.92s-1.21-7.84-15.69-5.54"></path>
                <polyline class="cls-3" points="33.78 231.21 18.39 231.21 18.39 211.63 37.97 211.63 37.97 226.88"></polyline>
                <line class="cls-3" x1="18.39" y1="211.63" x2="34.92" y2="228.16"></line>
                <path class="cls-3" d="M22.03,224.22s4.55-3,8.4-.56"></path>
                <path class="cls-3" d="M31.21,215.47s-3,4.55-.56,8.4"></path>
              </g>
              <g>
                <path class="cls-3" d="M48.35,231.16s7.84-1.21,5.54-15.69"></path>
                <path class="cls-3" d="M37.99,220.92s1.21-7.84,15.69-5.54"></path>
                <polyline class="cls-3" points="42.3 231.21 57.59 231.21 57.59 211.63 38.01 211.63 38.01 226.9"></polyline>
                <line class="cls-3" x1="57.59" y1="211.63" x2="41.08" y2="228.14"></line>
                <path class="cls-3" d="M53.95,224.22s-4.55-3-8.4-.56"></path>
                <path class="cls-3" d="M44.77,215.47s3,4.55.56,8.4"></path>
              </g>
              <g>
                <path class="cls-3" d="M48.35,231.09s7.84,1.21,5.54,15.69"></path>
                <path class="cls-3" d="M37.99,241.34s1.21,7.84,15.69,5.54"></path>
                <polyline class="cls-3" points="42.22 231.04 57.59 231.04 57.59 250.62 38.01 250.62 38.01 235.3"></polyline>
                <line class="cls-3" x1="57.59" y1="250.62" x2="41" y2="234.03"></line>
                <path class="cls-3" d="M53.95,238.03s-4.55,3-8.4.56"></path>
                <path class="cls-3" d="M44.77,246.78s3-4.55.56-8.4"></path>
              </g>
              <g>
                <path class="cls-3" d="M27.63,231.09s-7.84,1.21-5.54,15.69"></path>
                <path class="cls-3" d="M37.99,241.34s-1.21,7.84-15.69,5.54"></path>
                <polyline class="cls-3" points="33.76 231.04 18.39 231.04 18.39 250.62 37.97 250.62 37.97 235.4"></polyline>
                <line class="cls-3" x1="18.39" y1="250.62" x2="34.93" y2="234.08"></line>
                <path class="cls-3" d="M22.03,238.03s4.55,3,8.4.56"></path>
                <path class="cls-3" d="M31.21,246.78s-3-4.55-.56-8.4"></path>
              </g>
            </g>
            <path class="cls-3" d="M42.19,231.13c0,2.32-1.88,4.2-4.2,4.2s-4.2-1.88-4.2-4.2,1.88-4.2,4.2-4.2,4.2,1.88,4.2,4.2Z"></path>
          </g>
          <circle class="cls-3" cx="62.59" cy="231.37" r="2.98"></circle>
          <g>
            <g>
              <g>
                <path class="cls-3" d="M76.78,231.16s-7.84-1.21-5.54-15.69"></path>
                <path class="cls-3" d="M87.14,220.92s-1.21-7.84-15.69-5.54"></path>
                <polyline class="cls-3" points="82.93 231.21 67.53 231.21 67.53 211.63 87.12 211.63 87.12 226.88"></polyline>
                <line class="cls-3" x1="67.53" y1="211.63" x2="84.07" y2="228.16"></line>
                <path class="cls-3" d="M71.18,224.22s4.55-3,8.4-.56"></path>
                <path class="cls-3" d="M80.36,215.47s-3,4.55-.56,8.4"></path>
              </g>
              <g>
                <path class="cls-3" d="M97.5,231.16s7.84-1.21,5.54-15.69"></path>
                <path class="cls-3" d="M87.14,220.92s1.21-7.84,15.69-5.54"></path>
                <polyline class="cls-3" points="91.45 231.21 106.74 231.21 106.74 211.63 87.16 211.63 87.16 226.9"></polyline>
                <line class="cls-3" x1="106.74" y1="211.63" x2="90.23" y2="228.14"></line>
                <path class="cls-3" d="M103.1,224.22s-4.55-3-8.4-.56"></path>
                <path class="cls-3" d="M93.92,215.47s3,4.55.56,8.4"></path>
              </g>
              <g>
                <path class="cls-3" d="M97.5,231.09s7.84,1.21,5.54,15.69"></path>
                <path class="cls-3" d="M87.14,241.34s1.21,7.84,15.69,5.54"></path>
                <polyline class="cls-3" points="91.36 231.04 106.74 231.04 106.74 250.62 87.16 250.62 87.16 235.3"></polyline>
                <line class="cls-3" x1="106.74" y1="250.62" x2="90.15" y2="234.03"></line>
                <path class="cls-3" d="M103.1,238.03s-4.55,3-8.4.56"></path>
                <path class="cls-3" d="M93.92,246.78s3-4.55.56-8.4"></path>
              </g>
              <g>
                <path class="cls-3" d="M76.78,231.09s-7.84,1.21-5.54,15.69"></path>
                <path class="cls-3" d="M87.14,241.34s-1.21,7.84-15.69,5.54"></path>
                <polyline class="cls-3" points="82.91 231.04 67.53 231.04 67.53 250.62 87.12 250.62 87.12 235.4"></polyline>
                <line class="cls-3" x1="67.53" y1="250.62" x2="84.08" y2="234.08"></line>
                <path class="cls-3" d="M71.18,238.03s4.55,3,8.4.56"></path>
                <path class="cls-3" d="M80.36,246.78s-3-4.55-.56-8.4"></path>
              </g>
            </g>
            <circle class="cls-3" cx="87.14" cy="231.13" r="4.2"></circle>
          </g>
          <circle class="cls-3" cx="111.73" cy="231.37" r="2.98"></circle>
          <g>
            <g>
              <g>
                <path class="cls-3" d="M125.93,231.16s-7.84-1.21-5.54-15.69"></path>
                <path class="cls-3" d="M136.29,220.92s-1.21-7.84-15.69-5.54"></path>
                <polyline class="cls-3" points="132.08 231.21 116.68 231.21 116.68 211.63 136.27 211.63 136.27 226.88"></polyline>
                <line class="cls-3" x1="116.68" y1="211.63" x2="133.22" y2="228.16"></line>
                <path class="cls-3" d="M120.33,224.22s4.55-3,8.4-.56"></path>
                <path class="cls-3" d="M129.51,215.47s-3,4.55-.56,8.4"></path>
              </g>
              <g>
                <path class="cls-3" d="M146.65,231.16s7.84-1.21,5.54-15.69"></path>
                <path class="cls-3" d="M136.29,220.92s1.21-7.84,15.69-5.54"></path>
                <polyline class="cls-3" points="140.6 231.21 155.89 231.21 155.89 211.63 136.31 211.63 136.31 226.9"></polyline>
                <line class="cls-3" x1="155.89" y1="211.63" x2="139.37" y2="228.14"></line>
                <path class="cls-3" d="M152.24,224.22s-4.55-3-8.4-.56"></path>
                <path class="cls-3" d="M143.07,215.47s3,4.55.56,8.4"></path>
              </g>
              <g>
                <path class="cls-3" d="M146.65,231.09s7.84,1.21,5.54,15.69"></path>
                <path class="cls-3" d="M136.29,241.34s1.21,7.84,15.69,5.54"></path>
                <polyline class="cls-3" points="140.51 231.04 155.89 231.04 155.89 250.62 136.31 250.62 136.31 235.3"></polyline>
                <line class="cls-3" x1="155.89" y1="250.62" x2="139.3" y2="234.03"></line>
                <path class="cls-3" d="M152.24,238.03s-4.55,3-8.4.56"></path>
                <path class="cls-3" d="M143.07,246.78s3-4.55.56-8.4"></path>
              </g>
              <g>
                <path class="cls-3" d="M125.93,231.09s-7.84,1.21-5.54,15.69"></path>
                <path class="cls-3" d="M136.29,241.34s-1.21,7.84-15.69,5.54"></path>
                <polyline class="cls-3" points="132.06 231.04 116.68 231.04 116.68 250.62 136.27 250.62 136.27 235.4"></polyline>
                <line class="cls-3" x1="116.68" y1="250.62" x2="133.23" y2="234.08"></line>
                <path class="cls-3" d="M120.33,238.03s4.55,3,8.4.56"></path>
                <path class="cls-3" d="M129.51,246.78s-3-4.55-.56-8.4"></path>
              </g>
            </g>
            <circle class="cls-3" cx="136.29" cy="231.13" r="4.2"></circle>
          </g>
          <path class="cls-3" d="M163.86,231.37c0,1.65-1.33,2.98-2.98,2.98s-2.98-1.33-2.98-2.98,1.33-2.98,2.98-2.98,2.98,1.33,2.98,2.98Z"></path>
          <g>
            <g>
              <g>
                <path class="cls-3" d="M175.07,231.16s-7.84-1.21-5.54-15.69"></path>
                <path class="cls-3" d="M185.43,220.92s-1.21-7.84-15.69-5.54"></path>
                <polyline class="cls-3" points="181.23 231.21 165.83 231.21 165.83 211.63 185.42 211.63 185.42 226.88"></polyline>
                <line class="cls-3" x1="165.83" y1="211.63" x2="182.37" y2="228.16"></line>
                <path class="cls-3" d="M169.48,224.22s4.55-3,8.4-.56"></path>
                <path class="cls-3" d="M178.65,215.47s-3,4.55-.56,8.4"></path>
              </g>
              <g>
                <path class="cls-3" d="M195.8,231.16s7.84-1.21,5.54-15.69"></path>
                <path class="cls-3" d="M185.44,220.92s1.21-7.84,15.69-5.54"></path>
                <polyline class="cls-3" points="189.75 231.21 205.04 231.21 205.04 211.63 185.45 211.63 185.45 226.9"></polyline>
                <line class="cls-3" x1="205.04" y1="211.63" x2="188.52" y2="228.14"></line>
                <path class="cls-3" d="M201.39,224.22s-4.55-3-8.4-.56"></path>
                <path class="cls-3" d="M192.22,215.47s3,4.55.56,8.4"></path>
              </g>
              <g>
                <path class="cls-3" d="M195.8,231.09s7.84,1.21,5.54,15.69"></path>
                <path class="cls-3" d="M185.44,241.34s1.21,7.84,15.69,5.54"></path>
                <polyline class="cls-3" points="189.66 231.04 205.04 231.04 205.04 250.62 185.45 250.62 185.45 235.3"></polyline>
                <line class="cls-3" x1="205.04" y1="250.62" x2="188.45" y2="234.03"></line>
                <path class="cls-3" d="M201.39,238.03s-4.55,3-8.4.56"></path>
                <path class="cls-3" d="M192.22,246.78s3-4.55.56-8.4"></path>
              </g>
              <g>
                <path class="cls-3" d="M175.07,231.09s-7.84,1.21-5.54,15.69"></path>
                <path class="cls-3" d="M185.43,241.34s-1.21,7.84-15.69,5.54"></path>
                <polyline class="cls-3" points="181.21 231.04 165.83 231.04 165.83 250.62 185.42 250.62 185.42 235.4"></polyline>
                <line class="cls-3" x1="165.83" y1="250.62" x2="182.38" y2="234.08"></line>
                <path class="cls-3" d="M169.48,238.03s4.55,3,8.4.56"></path>
                <path class="cls-3" d="M178.65,246.78s-3-4.55-.56-8.4"></path>
              </g>
            </g>
            <path class="cls-3" d="M189.63,231.13c0,2.32-1.88,4.2-4.2,4.2s-4.2-1.88-4.2-4.2,1.88-4.2,4.2-4.2,4.2,1.88,4.2,4.2Z"></path>
          </g>
        </g>
      </g>
      <g>
        <g>
          <path class="cls-3" d="M145.2,129.81c-4.53-5.23-12.18-7.51-18.84-5.63-5.34,1.51-11.69,7.85-14.56,13.83-2.88-5.97-9.22-12.31-14.56-13.83-6.66-1.88-14.31.4-18.84,5.63-4.51,5.2-5.75,12.72-4.36,19.46,1.39,6.75,5.13,12.81,9.58,18.07,4.45,5.26,9.63,9.84,14.48,14.73,3.91,3.94,10.4,12.44,12.79,15.61.46.61,1.37.61,1.83,0,2.38-3.17,8.88-11.68,12.79-15.61,4.85-4.89,10.03-9.47,14.48-14.73,4.45-5.26,8.19-11.32,9.58-18.07,1.39-6.75.16-14.26-4.36-19.46Z"></path>
          <circle class="cls-3" cx="111.8" cy="156.7" r="52.64" transform="translate(-78.06 124.95) rotate(-45)"></circle>
          <circle class="cls-6" cx="111.8" cy="156.7" r="48.71"></circle>
        </g>
        <g>
          <g>
            <path class="cls-3" d="M89.06,206.63c-11.28-1.69-20.41-10.28-26.54-19.89s-9.98-20.5-15.52-30.46c-5.53-9.93-13.34-19.36-24.09-23.05-.04-.01-.08.02-.07.07,2.83,10.89,12.79,19.99,23.77,22.46"></path>
            <path class="cls-3" d="M32.79,138.75c-2.39-4.96-3.99-11.06-4.35-16.56-.01-.22.26-.35.42-.19,9.05,9.01,15.35,21.01,17.62,33.57"></path>
            <line class="cls-3" x1="47.06" y1="166.42" x2="53.3" y2="169.17"></line>
            <line class="cls-3" x1="55.92" y1="167.55" x2="55.81" y2="174.25"></line>
            <path class="cls-3" d="M72.57,198.57c-9.33-8-20.4-13.96-32.21-17.36-.15-.04-.3.12-.23.27,1.57,3.42,4.42,6.18,7.88,7.66,3.59,1.53,7.77,1.62,11.42.24"></path>
          </g>
          <path class="cls-3" d="M87.65,206.38c-9.66-2.01-19.86-3.82-29.52-5.83-6.7-1.39-13.48-2.82-19.61-5.86s-11.64-7.93-13.95-14.37c-.7-1.96-1.1-4.07-.82-6.14.29-2.06,1.32-4.08,3.03-5.27,1.71-1.19,4.13-1.42,5.9-.31,1.76,1.11,2.59,3.62,1.58,5.45-1.01,1.83-3.85,2.39-5.32.91"></path>
          <path class="cls-3" d="M57.56,200.45c-4.46-.83-8.93-1.67-13.22-2.49-2.87-.55-5.75-1.1-8.67-1.1-2.92,0-5.9.6-8.36,2.18-1.56,1.01-2.92,2.52-3.19,4.35-.24,1.66.46,3.37,1.6,4.6,1.31,1.41,3.25,2.28,5.16,2.09,1.91-.2,3.71-1.56,4.21-3.42.49-1.86-.52-4.06-2.33-4.7"></path>
          <path class="cls-8" d="M34.36,202.91c.01.97-.76,1.77-1.73,1.78-.97.01-1.77-.76-1.78-1.73s.76-1.77,1.73-1.78c.97-.01,1.77.76,1.78,1.73Z"></path>
          <path class="cls-8" d="M31.39,174.14c.06.97-.67,1.8-1.64,1.87-.97.06-1.8-.67-1.87-1.64-.06-.97.67-1.8,1.64-1.87.97-.06,1.8.67,1.87,1.64Z"></path>
        </g>
        <g>
          <g>
            <path class="cls-3" d="M50.02,116.7c-1.98-2.37-3.65-5.6-4.3-8.62-.24-1.12-.37-2.32.1-3.36.59-1.3,1.98-2.04,3.34-2.45,2.15-.65,4.67-.65,6.44.74,1.41,1.1,2.13,2.95,2.11,4.75-.02,1.79-.69,3.53-1.64,5.05-.95,1.52-2.17,2.85-3.38,4.17"></path>
            <path class="cls-3" d="M53.07,116.96c1.58-2.66,4.07-5.3,6.71-6.92.97-.6,2.07-1.12,3.21-1.02,1.42.12,2.58,1.19,3.42,2.34,1.33,1.81,2.16,4.19,1.45,6.32-.57,1.7-2.08,2.99-3.78,3.57-1.7.58-3.56.52-5.31.13-1.75-.39-3.41-1.1-5.06-1.8"></path>
            <path class="cls-3" d="M53.84,119.93c3.03.61,6.36,2.07,8.75,4.02.89.72,1.74,1.58,2.03,2.69.35,1.38-.26,2.83-1.07,4-1.27,1.85-3.23,3.43-5.48,3.46-1.79.03-3.51-.97-4.62-2.37s-1.67-3.19-1.89-4.97-.1-3.58.02-5.37"></path>
            <path class="cls-3" d="M51.29,121.64c.43,3.06.16,6.68-.89,9.59-.39,1.07-.91,2.17-1.86,2.81-1.18.79-2.75.69-4.13.32-2.17-.58-4.31-1.91-5.09-4.02-.62-1.68-.25-3.63.7-5.15.96-1.52,2.45-2.64,4.06-3.43,1.61-.79,3.35-1.28,5.07-1.77"></path>
            <path class="cls-3" d="M48.83,119.8c-2.74,1.43-6.25,2.37-9.34,2.35-1.14,0-2.35-.14-3.26-.82-1.14-.85-1.57-2.37-1.68-3.79-.17-2.24.37-4.7,2.1-6.13,1.38-1.14,3.34-1.45,5.09-1.05,1.75.4,3.3,1.43,4.58,2.69,1.28,1.25,2.32,2.73,3.35,4.2"></path>
            <circle class="cls-3" cx="51.36" cy="118.98" r="2.64"></circle>
          </g>
          <line class="cls-1" x1="51.36" y1="116.34" x2="51.36" y2="109.33"></line>
          <line class="cls-1" x1="53.85" y1="118.07" x2="61.44" y2="116.16"></line>
          <line class="cls-1" x1="53.21" y1="121.01" x2="57.42" y2="127.71"></line>
          <line class="cls-1" x1="49.76" y1="121.33" x2="45.81" y2="127.33"></line>
          <line class="cls-1" x1="42.23" y1="116.29" x2="48.74" y2="118.27"></line>
        </g>
        <g>
          <path class="cls-1" d="M107.9,198.52c-5.87-8.64-13.1-16.44-21.76-22.27-1.12-.75-2.26-1.47-3.53-1.92-1.27-.45-2.67-.61-3.96-.21-2.28.7-3.81,3.21-3.52,5.58.29,2.37,2.27,4.39,4.61,4.88,1.49.31,3.13.03,4.32-.91s1.84-2.59,1.44-4.06c-.4-1.47-1.91-2.6-3.42-2.39"></path>
          <path class="cls-8" d="M83.76,178.11c0,.81-.66,1.47-1.47,1.47s-1.47-.66-1.47-1.47.66-1.47,1.47-1.47,1.47.66,1.47,1.47Z"></path>
        </g>
        <path class="cls-8" d="M106.66,198.75c-4.62-6.1-10.51-11.22-17.18-14.95-.12-.07-.26.09-.17.2,2.69,3.57,5.81,6.88,9.19,9.8.1.09.02.24-.11.21-2.21-.6-4.57-.88-6.81-1.28-2.2-.4-4.44-1.08-6.15-2.49-.11-.09-.27.03-.2.15,1.21,2.27,3.29,3.95,5.7,4.91,2.62,1.04,5.47,1.32,8.29,1.39,1.37.03,2.75.02,4.09.29,1.34.26,2.44.77,3.36,1.79Z"></path>
        <g>
          <path class="cls-1" d="M86.48,173.96c-1.35-1.54-3.42-2.43-5.47-2.34-1.83.07-3.57.87-5.39,1.07-2.66.28-5.44-.85-7.11-2.94-1.66-2.09-2.13-5.09-1.12-7.57.47-1.15,1.28-2.22,2.41-2.72,1.17-.52,2.57-.37,3.7.22,1.13.59,2.02,1.58,2.66,2.69.78,1.36,1.22,3.05.6,4.49-.56,1.33-2.02,2.21-3.46,2.13-1.44-.08-2.78-1.1-3.26-2.46-.37-1.05-.22-2.32.51-3.16.74-.84,2.08-1.14,3.04-.56.96.58,1.28,2.05.55,2.9"></path>
          <circle class="cls-8" cx="73.84" cy="165.34" r=".98"></circle>
        </g>
        <g>
          <g>
            <path class="cls-3" d="M134.36,206.63c11.28-1.69,20.41-10.28,26.54-19.89s9.98-20.5,15.52-30.46c5.53-9.93,13.34-19.36,24.09-23.05.04-.01.08.02.07.07-2.83,10.89-12.79,19.99-23.77,22.46"></path>
            <path class="cls-3" d="M190.63,138.75c2.39-4.96,3.99-11.06,4.35-16.56.01-.22-.26-.35-.42-.19-9.05,9.01-15.35,21.01-17.62,33.57"></path>
            <line class="cls-3" x1="176.36" y1="166.42" x2="170.13" y2="169.17"></line>
            <line class="cls-3" x1="167.51" y1="167.55" x2="167.62" y2="174.25"></line>
            <path class="cls-3" d="M150.85,198.57c9.33-8,20.4-13.96,32.21-17.36.15-.04.3.12.23.27-1.57,3.42-4.42,6.18-7.88,7.66-3.59,1.53-7.77,1.62-11.42.24"></path>
          </g>
          <path class="cls-3" d="M135.78,206.38c9.66-2.01,19.86-3.82,29.52-5.83,6.7-1.39,13.48-2.82,19.61-5.86s11.64-7.93,13.95-14.37c.7-1.96,1.1-4.07.82-6.14-.29-2.06-1.32-4.08-3.03-5.27-1.71-1.19-4.13-1.42-5.9-.31-1.76,1.11-2.59,3.62-1.58,5.45,1.01,1.83,3.85,2.39,5.32.91"></path>
          <path class="cls-3" d="M165.87,200.45c4.46-.83,8.93-1.67,13.22-2.49,2.87-.55,5.75-1.1,8.67-1.1,2.92,0,5.9.6,8.36,2.18,1.56,1.01,2.92,2.52,3.19,4.35.24,1.66-.46,3.37-1.6,4.6-1.31,1.41-3.25,2.28-5.16,2.09-1.91-.2-3.71-1.56-4.21-3.42-.49-1.86.52-4.06,2.33-4.7"></path>
          <path class="cls-8" d="M189.07,202.91c-.01.97.76,1.77,1.73,1.78.97.01,1.77-.76,1.78-1.73s-.76-1.77-1.73-1.78c-.97-.01-1.77.76-1.78,1.73Z"></path>
          <path class="cls-8" d="M192.04,174.14c-.06.97.67,1.8,1.64,1.87.97.06,1.8-.67,1.87-1.64.06-.97-.67-1.8-1.64-1.87-.97-.06-1.8.67-1.87,1.64Z"></path>
        </g>
        <g>
          <g>
            <path class="cls-3" d="M173.41,116.7c1.98-2.37,3.65-5.6,4.3-8.62.24-1.12.37-2.32-.1-3.36-.59-1.3-1.98-2.04-3.34-2.45-2.15-.65-4.67-.65-6.44.74-1.41,1.1-2.13,2.95-2.11,4.75.02,1.79.69,3.53,1.64,5.05.95,1.52,2.17,2.85,3.38,4.17"></path>
            <path class="cls-3" d="M170.36,116.96c-1.58-2.66-4.07-5.3-6.71-6.92-.97-.6-2.07-1.12-3.21-1.02-1.42.12-2.58,1.19-3.42,2.34-1.33,1.81-2.16,4.19-1.45,6.32.57,1.7,2.08,2.99,3.78,3.57,1.7.58,3.56.52,5.31.13,1.75-.39,3.41-1.1,5.06-1.8"></path>
            <path class="cls-3" d="M169.59,119.93c-3.03.61-6.36,2.07-8.75,4.02-.89.72-1.74,1.58-2.03,2.69-.35,1.38.26,2.83,1.07,4,1.27,1.85,3.23,3.43,5.48,3.46,1.79.03,3.51-.97,4.62-2.37s1.67-3.19,1.89-4.97.1-3.58-.02-5.37"></path>
            <path class="cls-3" d="M172.14,121.64c-.43,3.06-.16,6.68.89,9.59.39,1.07.91,2.17,1.86,2.81,1.18.79,2.75.69,4.13.32,2.17-.58,4.31-1.91,5.09-4.02.62-1.68.25-3.63-.7-5.15-.96-1.52-2.45-2.64-4.06-3.43-1.61-.79-3.35-1.28-5.07-1.77"></path>
            <path class="cls-3" d="M174.59,119.8c2.74,1.43,6.25,2.37,9.34,2.35,1.14,0,2.35-.14,3.26-.82,1.14-.85,1.57-2.37,1.68-3.79.17-2.24-.37-4.7-2.1-6.13-1.38-1.14-3.34-1.45-5.09-1.05-1.75.4-3.3,1.43-4.58,2.69-1.28,1.25-2.32,2.73-3.35,4.2"></path>
            <circle class="cls-3" cx="172.07" cy="118.98" r="2.64"></circle>
          </g>
          <line class="cls-1" x1="172.07" y1="116.34" x2="172.07" y2="109.33"></line>
          <line class="cls-1" x1="169.58" y1="118.07" x2="161.98" y2="116.16"></line>
          <line class="cls-1" x1="170.22" y1="121.01" x2="166" y2="127.71"></line>
          <line class="cls-1" x1="173.66" y1="121.33" x2="177.62" y2="127.33"></line>
          <line class="cls-1" x1="181.2" y1="116.29" x2="174.68" y2="118.27"></line>
        </g>
        <g>
          <path class="cls-1" d="M115.53,198.52c5.87-8.64,13.1-16.44,21.76-22.27,1.11-.75,2.26-1.47,3.53-1.92,1.27-.45,2.67-.61,3.96-.21,2.28.7,3.81,3.21,3.52,5.58-.29,2.37-2.27,4.39-4.61,4.88-1.49.31-3.13.03-4.32-.91s-1.84-2.59-1.44-4.06c.4-1.47,1.91-2.6,3.42-2.39"></path>
          <path class="cls-8" d="M139.66,178.11c0,.81.66,1.47,1.47,1.47s1.47-.66,1.47-1.47-.66-1.47-1.47-1.47-1.47.66-1.47,1.47Z"></path>
        </g>
        <path class="cls-8" d="M116.76,198.75c4.62-6.1,10.51-11.22,17.18-14.95.12-.07.26.09.17.2-2.69,3.57-5.81,6.88-9.19,9.8-.1.09-.02.24.11.21,2.21-.6,4.57-.88,6.81-1.28,2.2-.4,4.44-1.08,6.15-2.49.11-.09.27.03.2.15-1.21,2.27-3.29,3.95-5.7,4.91-2.62,1.04-5.47,1.32-8.29,1.39-1.37.03-2.75.02-4.09.29-1.34.26-2.44.77-3.36,1.79Z"></path>
        <g>
          <path class="cls-1" d="M136.94,173.96c1.35-1.54,3.42-2.43,5.47-2.34,1.83.07,3.57.87,5.39,1.07,2.66.28,5.44-.85,7.11-2.94,1.66-2.09,2.13-5.09,1.12-7.57-.47-1.15-1.28-2.22-2.41-2.72-1.17-.52-2.57-.37-3.7.22-1.14.59-2.02,1.58-2.66,2.69-.78,1.36-1.22,3.05-.6,4.49.56,1.33,2.02,2.21,3.46,2.13,1.44-.08,2.78-1.1,3.26-2.46.37-1.05.22-2.32-.51-3.16-.74-.84-2.08-1.14-3.04-.56-.96.58-1.28,2.05-.55,2.9"></path>
          <circle class="cls-8" cx="149.59" cy="165.34" r=".98"></circle>
        </g>
      </g>
      <g>
        <g>
          <polyline class="cls-2" points="72.72 294.82 111.73 255.69 151.12 295.08"></polyline>
          <polyline class="cls-5" points="70.36 294.61 111.73 253.19 153.34 294.52"></polyline>
          <g>
            <path class="cls-3" d="M71.35,290.62c3.22-13.28,13.76-23.69,27.11-26.73"></path>
            <path class="cls-3" d="M64.74,295.05c2.03-20.74,19.15-37.06,40.24-37.82"></path>
          </g>
          <g>
            <path class="cls-3" d="M86.02,295.05c-.43-.6-1.09-1.54-1.35-2.27-.29-.8-.12-1.71.43-2.36.76-.89,2.17-2.12,4.65-3.03,4.29-1.58,9.09-1.01,13.03,1.3l5.48,3.21"></path>
            <path class="cls-3" d="M107.21,294.07l-6.67-3.29c-3.43-1.69-6.2-4.54-7.58-8.1-.87-2.25-1.28-4.85-.3-7.35.31-.79,1.03-1.37,1.87-1.49,1.15-.17,3.03-.16,5.5.79,4.27,1.64,7.49,5.23,8.94,9.57l2,6.03"></path>
            <path class="cls-3" d="M108.75,291.17l-2.85-6.87c-1.46-3.53-1.67-7.5-.35-11.09.83-2.27,2.24-4.49,4.62-5.73.75-.39,1.68-.35,2.39.12.98.63,2.38,1.87,3.61,4.22,2.13,4.05,2.18,8.88.4,13.09l-2.47,5.85"></path>
            <path class="cls-3" d="M111.82,290.01l2.39-7.04c1.23-3.62,3.69-6.74,7.05-8.57,2.12-1.15,4.65-1.9,7.25-1.26.82.2,1.49.85,1.72,1.66.32,1.12.55,2.98-.07,5.55-1.07,4.45-4.21,8.11-8.33,10.1l-5.72,2.77"></path>
            <path class="cls-3" d="M114.9,291.15l6.44-3.71c3.31-1.91,7.22-2.63,10.95-1.79,2.36.53,4.74,1.64,6.28,3.84.49.7.56,1.62.2,2.39-.39.82-1.34,2.12-2.65,3.29"></path>
            <path class="cls-3" d="M107.64,294.98c-.02-.23-.02-.47,0-.71.22-2.31,2.27-4.01,4.59-3.79s4.01,2.27,3.79,4.59"></path>
          </g>
          <polyline class="cls-2" points="67.36 294.76 111.73 250.64 156.09 294.84"></polyline>
          <g>
            <g>
              <g>
                <path class="cls-3" d="M57.45,264.8c2-3.17,1.67-7.39-1.01-10.2-.07-.08-.2-.08-.28,0l-5.31,5.31c-3.17,3.17-3.17,8.32,0,11.49h0c3.17,3.17,8.32,3.17,11.49,0l5.31-5.31c.08-.08.08-.2,0-.28-2.81-2.68-7.03-3.02-10.2-1.01Z"></path>
                <path class="cls-3" d="M58.88,259.41c1.61-.8,3.3-.25,3.83-.03.12.05.21.13.27.25.27.52.92,2.15-.1,3.94"></path>
              </g>
              <g>
                <path class="cls-3" d="M44.1,278.15c-2,3.17-1.67,7.39,1.01,10.2.07.08.2.08.28,0l5.31-5.31c3.17-3.17,3.17-8.32,0-11.49h0c-3.17-3.17-8.32-3.17-11.49,0l-5.31,5.31c-.08.08-.08.2,0,.28,2.81,2.68,7.03,3.02,10.2,1.01Z"></path>
                <path class="cls-3" d="M42.68,283.54c-1.61.8-3.29.25-3.83.03-.12-.05-.21-.13-.27-.25-.27-.52-.92-2.15.1-3.94"></path>
              </g>
              <g>
                <path class="cls-3" d="M57.45,278.15c3.17,2,7.39,1.67,10.2-1.01.08-.07.08-.2,0-.28l-5.31-5.31c-3.17-3.17-8.32-3.17-11.49,0h0c-3.17,3.17-3.17,8.32,0,11.49l5.31,5.31c.08.08.2.08.28,0,2.68-2.81,3.02-7.03,1.01-10.2Z"></path>
                <path class="cls-3" d="M62.84,279.58c.8,1.61.25,3.29.03,3.83-.05.12-.13.21-.25.27-.52.27-2.15.92-3.94-.1"></path>
              </g>
              <g>
                <path class="cls-3" d="M44.1,264.8c-3.17-2-7.39-1.67-10.2,1.01-.08.07-.08.2,0,.28l5.31,5.31c3.17,3.17,8.32,3.17,11.49,0h0c3.17-3.17,3.17-8.32,0-11.49l-5.31-5.31c-.08-.08-.2-.08-.28,0-2.68,2.81-3.02,7.03-1.01,10.2Z"></path>
                <path class="cls-3" d="M38.71,263.38c-.8-1.61-.25-3.29-.03-3.83.05-.12.13-.21.25-.27.52-.27,2.15-.92,3.94.1"></path>
              </g>
            </g>
            <g>
              <g>
                <path class="cls-3" d="M179.32,264.8c2-3.17,1.67-7.39-1.01-10.2-.07-.08-.2-.08-.28,0l-5.31,5.31c-3.17,3.17-3.17,8.32,0,11.49h0c3.17,3.17,8.32,3.17,11.49,0l5.31-5.31c.08-.08.08-.2,0-.28-2.81-2.68-7.03-3.02-10.2-1.01Z"></path>
                <path class="cls-3" d="M180.75,259.41c1.61-.8,3.29-.25,3.83-.03.12.05.21.13.27.25.27.52.92,2.15-.1,3.94"></path>
              </g>
              <g>
                <path class="cls-3" d="M165.97,278.15c-2,3.17-1.67,7.39,1.01,10.2.07.08.2.08.28,0l5.31-5.31c3.17-3.17,3.17-8.32,0-11.49h0c-3.17-3.17-8.32-3.17-11.49,0l-5.31,5.31c-.08.08-.08.2,0,.28,2.81,2.68,7.03,3.02,10.2,1.01Z"></path>
                <path class="cls-3" d="M164.55,283.54c-1.61.8-3.3.25-3.83.03-.12-.05-.21-.13-.27-.25-.27-.52-.92-2.15.1-3.94"></path>
              </g>
              <g>
                <path class="cls-3" d="M179.32,278.15c3.17,2,7.39,1.67,10.2-1.01.08-.07.08-.2,0-.28l-5.31-5.31c-3.17-3.17-8.32-3.17-11.49,0h0c-3.17,3.17-3.17,8.32,0,11.49l5.31,5.31c.08.08.2.08.28,0,2.68-2.81,3.02-7.03,1.01-10.2Z"></path>
                <path class="cls-3" d="M184.71,279.58c.8,1.61.25,3.29.03,3.83-.05.12-.13.21-.25.27-.52.27-2.15.92-3.94-.1"></path>
              </g>
              <g>
                <path class="cls-3" d="M165.97,264.8c-3.17-2-7.39-1.67-10.2,1.01-.08.07-.08.2,0,.28l5.31,5.31c3.17,3.17,8.32,3.17,11.49,0h0c3.17-3.17,3.17-8.32,0-11.49l-5.31-5.31c-.08-.08-.2-.08-.28,0-2.68,2.81-3.02,7.03-1.01,10.2Z"></path>
                <path class="cls-3" d="M160.59,263.38c-.8-1.61-.25-3.29-.03-3.83.05-.12.13-.21.25-.27.52-.27,2.15-.92,3.94.1"></path>
              </g>
            </g>
          </g>
          <g>
            <path class="cls-3" d="M151.94,290.62c-3.22-13.28-13.76-23.69-27.11-26.73"></path>
            <path class="cls-3" d="M158.55,295.05c-2.03-20.74-19.15-37.06-40.24-37.82"></path>
          </g>
        </g>
        <g>
          <g>
            <g>
              <g>
                <path class="cls-3" d="M57.45,32.62c2-3.17,1.67-7.39-1.01-10.2-.07-.08-.2-.08-.28,0l-5.31,5.31c-3.17,3.17-3.17,8.32,0,11.49h0c3.17,3.17,8.32,3.17,11.49,0l5.31-5.31c.08-.08.08-.2,0-.28-2.81-2.68-7.03-3.02-10.2-1.01Z"></path>
                <path class="cls-3" d="M58.88,27.23c1.61-.8,3.3-.25,3.83-.03.12.05.21.13.27.25.27.52.92,2.15-.1,3.94"></path>
              </g>
              <g>
                <path class="cls-3" d="M44.1,45.97c-2,3.17-1.67,7.39,1.01,10.2.07.08.2.08.28,0l5.31-5.31c3.17-3.17,3.17-8.32,0-11.49h0c-3.17-3.17-8.32-3.17-11.49,0l-5.31,5.31c-.08.08-.08.2,0,.28,2.81,2.68,7.03,3.02,10.2,1.01Z"></path>
                <path class="cls-3" d="M42.68,51.35c-1.61.8-3.29.25-3.83.03-.12-.05-.21-.13-.27-.25-.27-.52-.92-2.15.1-3.94"></path>
              </g>
              <g>
                <path class="cls-3" d="M57.45,45.97c3.17,2,7.39,1.67,10.2-1.01.08-.07.08-.2,0-.28l-5.31-5.31c-3.17-3.17-8.32-3.17-11.49,0h0c-3.17,3.17-3.17,8.32,0,11.49l5.31,5.31c.08.08.2.08.28,0,2.68-2.81,3.02-7.03,1.01-10.2Z"></path>
                <path class="cls-3" d="M62.84,47.39c.8,1.61.25,3.29.03,3.83-.05.12-.13.21-.25.27-.52.27-2.15.92-3.94-.1"></path>
              </g>
              <g>
                <path class="cls-3" d="M44.1,32.62c-3.17-2-7.39-1.67-10.2,1.01-.08.07-.08.2,0,.28l5.31,5.31c3.17,3.17,8.32,3.17,11.49,0h0c3.17-3.17,3.17-8.32,0-11.49l-5.31-5.31c-.08-.08-.2-.08-.28,0-2.68,2.81-3.02,7.03-1.01,10.2Z"></path>
                <path class="cls-3" d="M38.71,31.19c-.8-1.61-.25-3.29-.03-3.83.05-.12.13-.21.25-.27.52-.27,2.15-.92,3.94.1"></path>
              </g>
            </g>
            <g>
              <g>
                <path class="cls-3" d="M179.32,32.62c2-3.17,1.67-7.39-1.01-10.2-.07-.08-.2-.08-.28,0l-5.31,5.31c-3.17,3.17-3.17,8.32,0,11.49h0c3.17,3.17,8.32,3.17,11.49,0l5.31-5.31c.08-.08.08-.2,0-.28-2.81-2.68-7.03-3.02-10.2-1.01Z"></path>
                <path class="cls-3" d="M180.75,27.23c1.61-.8,3.29-.25,3.83-.03.12.05.21.13.27.25.27.52.92,2.15-.1,3.94"></path>
              </g>
              <g>
                <path class="cls-3" d="M165.97,45.97c-2,3.17-1.67,7.39,1.01,10.2.07.08.2.08.28,0l5.31-5.31c3.17-3.17,3.17-8.32,0-11.49h0c-3.17-3.17-8.32-3.17-11.49,0l-5.31,5.31c-.08.08-.08.2,0,.28,2.81,2.68,7.03,3.02,10.2,1.01Z"></path>
                <path class="cls-3" d="M164.55,51.35c-1.61.8-3.3.25-3.83.03-.12-.05-.21-.13-.27-.25-.27-.52-.92-2.15.1-3.94"></path>
              </g>
              <g>
                <path class="cls-3" d="M179.32,45.97c3.17,2,7.39,1.67,10.2-1.01.08-.07.08-.2,0-.28l-5.31-5.31c-3.17-3.17-8.32-3.17-11.49,0h0c-3.17,3.17-3.17,8.32,0,11.49l5.31,5.31c.08.08.2.08.28,0,2.68-2.81,3.02-7.03,1.01-10.2Z"></path>
                <path class="cls-3" d="M184.71,47.39c.8,1.61.25,3.29.03,3.83-.05.12-.13.21-.25.27-.52.27-2.15.92-3.94-.1"></path>
              </g>
              <g>
                <path class="cls-3" d="M165.97,32.62c-3.17-2-7.39-1.67-10.2,1.01-.08.07-.08.2,0,.28l5.31,5.31c3.17,3.17,8.32,3.17,11.49,0h0c3.17-3.17,3.17-8.32,0-11.49l-5.31-5.31c-.08-.08-.2-.08-.28,0-2.68,2.81-3.02,7.03-1.01,10.2Z"></path>
                <path class="cls-3" d="M160.59,31.19c-.8-1.61-.25-3.29-.03-3.83.05-.12.13-.21.25-.27.52-.27,2.15-.92,3.94.1"></path>
              </g>
            </g>
          </g>
          <polyline class="cls-2" points="150.38 17.31 111.56 56.18 72.77 17.25"></polyline>
          <polyline class="cls-4" points="153.06 17.25 111.56 58.68 69.87 16.99"></polyline>
          <g>
            <path class="cls-3" d="M151.94,21.26c-3.22,13.28-13.76,23.69-27.11,26.73"></path>
            <path class="cls-3" d="M158.55,16.82c-2.03,20.74-19.15,37.06-40.24,37.82"></path>
          </g>
          <g>
            <path class="cls-3" d="M137.56,17.1c.43.6.79,1.26,1.06,2,.29.8.12,1.71-.43,2.36-.76.89-2.17,2.12-4.65,3.03-4.29,1.58-9.09,1.01-13.03-1.3l-5.48-3.21"></path>
            <path class="cls-3" d="M116.08,17.8l6.67,3.29c3.43,1.69,6.2,4.54,7.58,8.1.87,2.25,1.28,4.85.3,7.35-.31.79-1.03,1.37-1.87,1.49-1.15.17-3.03.16-5.5-.79-4.27-1.64-7.49-5.23-8.94-9.57l-2-6.03"></path>
            <path class="cls-3" d="M114.54,20.7l2.85,6.87c1.46,3.53,1.67,7.5.35,11.09-.83,2.27-2.24,4.49-4.62,5.73-.75.39-1.68.35-2.39-.12-.98-.63-2.38-1.87-3.61-4.22-2.13-4.05-2.18-8.88-.4-13.09l2.47-5.85"></path>
            <path class="cls-3" d="M111.47,21.87l-2.39,7.04c-1.23,3.62-3.69,6.74-7.05,8.57-2.12,1.15-4.65,1.9-7.25,1.26-.82-.2-1.49-.85-1.72-1.66-.32-1.12-.55-2.98.07-5.55,1.07-4.45,4.21-8.11,8.33-10.1l5.72-2.77"></path>
            <path class="cls-2" d="M108.39,20.72l-6.44,3.71c-3.31,1.91-7.22,2.63-10.95,1.79-2.36-.53-4.74-1.64-6.28-3.84-.49-.7-.56-1.62-.2-2.39.39-.82.86-1.52,2.17-2.69"></path>
            <path class="cls-3" d="M115.65,16.89c.02.23.02.47,0,.71-.22,2.31-2.27,4.01-4.59,3.79s-4.01-2.27-3.79-4.59"></path>
          </g>
          <polyline class="cls-2" points="155.89 17.27 111.56 61.24 67.45 17.27"></polyline>
          <g>
            <path class="cls-3" d="M71.35,21.26c3.22,13.28,13.76,23.69,27.11,26.73"></path>
            <path class="cls-3" d="M64.74,16.82c2.03,20.74,19.15,37.06,40.24,37.82"></path>
          </g>
        </g>
      </g>
      <g>
        <g>
          <circle class="cls-8" cx="22.83" cy="51.63" r="1.05"></circle>
          <circle class="cls-8" cx="22.83" cy="111.76" r="1.05"></circle>
          <path class="cls-8" d="M42.44,165.2c0,.58-.47,1.05-1.05,1.05s-1.05-.47-1.05-1.05.47-1.05,1.05-1.05,1.05.47,1.05,1.05Z"></path>
          <circle class="cls-8" cx="22.83" cy="154.48" r="1.05"></circle>
          <circle class="cls-8" cx="62.14" cy="207.42" r="1.05"></circle>
          <circle class="cls-8" cx="26.87" cy="260.01" r="1.05"></circle>
          <circle class="cls-8" cx="73" cy="260.01" r="1.05"></circle>
          <circle class="cls-8" cx="22.83" cy="194.17" r="1.05"></circle>
          <circle class="cls-8" cx="75.55" cy="51.63" r="1.05"></circle>
          <path class="cls-8" d="M32.56,40.27c0,.58-.47,1.05-1.05,1.05s-1.05-.47-1.05-1.05.47-1.05,1.05-1.05,1.05.47,1.05,1.05Z"></path>
        </g>
        <g>
          <circle class="cls-8" cx="198.75" cy="51.63" r="1.05"></circle>
          <circle class="cls-8" cx="198.75" cy="111.76" r="1.05"></circle>
          <circle class="cls-8" cx="180.19" cy="165.2" r="1.05"></circle>
          <circle class="cls-8" cx="198.75" cy="154.48" r="1.05"></circle>
          <path class="cls-8" d="M158.38,207.42c0,.58.47,1.05,1.05,1.05s1.05-.47,1.05-1.05-.47-1.05-1.05-1.05-1.05.47-1.05,1.05Z"></path>
          <circle class="cls-8" cx="194.7" cy="260.01" r="1.05"></circle>
          <path class="cls-8" d="M147.52,260.01c0,.58.47,1.05,1.05,1.05s1.05-.47,1.05-1.05-.47-1.05-1.05-1.05-1.05.47-1.05,1.05Z"></path>
          <circle class="cls-8" cx="198.75" cy="194.17" r="1.05"></circle>
          <path class="cls-8" d="M144.97,51.63c0,.58.47,1.05,1.05,1.05s1.05-.47,1.05-1.05-.47-1.05-1.05-1.05-1.05.47-1.05,1.05Z"></path>
          <path class="cls-8" d="M189.01,40.27c0,.58.47,1.05,1.05,1.05s1.05-.47,1.05-1.05-.47-1.05-1.05-1.05-1.05.47-1.05,1.05Z"></path>
        </g>
      </g>
    </g>
  </g>
</svg><style>@media (prefers-color-scheme: light) { :root { filter: none; } }
@media (prefers-color-scheme: dark) { :root { filter: none; } }
</style></svg>