<svg width="1101" height="404" viewBox="0 0 1101 404" fill="none" xmlns="http://www.w3.org/2000/svg">
<g opacity="0.05" clip-path="url(#clip0_17_8451)">
<path d="M536.393 394.197C518.158 388.201 507.492 369.355 506.03 340.573C505.6 332.35 505.858 329.951 507.75 322.156C510.331 311.705 514.803 298.942 524.953 273.329C534.243 249.772 535.877 244.547 539.662 225.787C543.705 205.656 548.78 177.217 548.78 174.99C548.78 173.962 549.124 173.019 549.468 172.762C549.898 172.505 551.618 180.729 553.424 190.923C561.51 237.265 563.402 244.718 575.703 277.612C582.326 295.601 587.659 311.705 589.809 320.443C592.045 329.608 591.787 347.854 589.379 359.419C585.766 376.38 576.993 388.801 565.381 393.341C558.241 396.082 543.533 396.51 536.393 394.197Z" fill="#EEC28C"/>
<path d="M401.951 314.532C382.769 307.936 376.404 287.206 388.791 271.616C394.812 264.077 407.37 257.653 433.949 248.487C451.496 242.491 461.302 237.865 471.882 230.841C480.225 225.359 492.525 214.051 499.063 205.828L503.535 200.26L504.74 203.172C508.868 213.109 500.095 239.236 484.784 262.621C474.376 278.469 460.7 293.716 448.571 302.882C442.55 307.422 429.734 313.847 423.885 315.217C417.778 316.674 407.112 316.331 401.951 314.532Z" fill="#EEC28C"/>
<path d="M667.739 314.104C655.439 310.078 643.569 301.854 630.753 288.491C611.141 268.104 593.852 237.522 589.981 216.535C589.035 211.139 589.465 203.686 590.927 201.373C591.616 200.26 591.96 200.431 593.25 202.23C596.777 207.284 605.12 216.193 610.281 220.561C622.667 231.012 631.011 235.467 656.299 245.403C688.555 257.996 695.35 261.336 703.436 268.618C709.801 274.357 712.64 280.524 712.64 288.748C712.64 293.716 712.21 296.115 710.661 299.113C707.565 305.452 703.178 309.821 696.899 312.904C691.738 315.474 690.362 315.731 682.534 315.903C675.395 316.16 672.9 315.817 667.739 314.104Z" fill="#EEC28C"/>
<path d="M221.06 295.601C200.588 292.945 182.611 284.465 171.687 272.215C159.387 258.595 153.452 238.036 155.688 217.392C158.871 188.438 175.3 168.736 203.427 159.999C214.179 156.658 222.178 155.716 234.995 156.23C247.209 156.744 253.574 158.029 271.207 163.425C278.088 165.567 281.615 166.252 282.217 165.652C283.507 164.368 220.544 108.688 193.449 87.2723C151.818 54.2926 127.131 42.3 95.1333 39.4732C69.7586 37.1603 48.8568 43.1566 35.1804 56.6055C24.6865 66.8848 21.0738 75.708 21.0738 90.87C21.0738 102.177 22.45 107.488 27.2669 114.598C30.5355 119.395 33.6321 122.136 39.3091 125.049C47.5666 129.161 63.0494 130.788 69.5006 128.047C72.9412 126.677 77.414 122.822 77.414 121.366C77.414 120.852 75.4357 119.395 73.1133 118.11C67.4362 114.941 65.1138 110.487 65.0278 102.863C64.9418 93.6969 68.8125 88.3002 78.7903 83.8458C84.4673 81.276 95.6493 81.1046 101.928 83.5032C111.82 87.2723 117.583 93.3542 120.594 103.205C125.669 119.824 116.637 136.785 97.8858 145.693C88.8541 150.062 81.1127 151.69 69.5866 151.69C35.5244 151.69 10.6659 136.956 2.23638 111.686C0.172001 105.604 -3.05176e-05 103.805 -3.05176e-05 91.2127C-3.05176e-05 79.0488 0.258016 76.8216 2.06434 71.5106C10.6659 46.1548 29.9334 30.3074 59.3508 24.4824C68.8985 22.5979 88.252 21.9126 98.9179 23.1118C130.486 26.7096 159.473 39.6445 193.965 65.5999C209.534 77.3355 215.985 82.8179 248.155 111.857C261.918 124.278 275.336 136.271 278.088 138.498C284.884 144.066 285.658 143.038 282.217 132.93C276.454 115.883 274.906 93.4399 278.519 79.7341C283.852 59.7749 296.582 42.814 313.183 33.5625C327.72 25.5104 348.621 22.3409 368.147 25.339C378.469 26.881 384.146 28.5942 392.059 32.4489C405.478 39.0449 415.455 48.8103 421.563 61.3168C426.896 72.2815 427.584 79.3057 424.315 90.7844C421.821 99.8645 417.348 107.146 409.95 114.427C399.198 125.135 388.533 129.418 372.878 129.418C355.675 129.418 342.944 123.336 336.751 112.2C334.429 108.002 334.171 106.803 334.171 99.8645C334.171 93.0972 334.515 91.5553 336.579 87.1866C340.536 79.2201 345.869 76.3076 356.535 76.3076C364.878 76.3076 370.899 79.2201 374.512 85.1307C376.662 88.6428 377.092 90.3561 377.437 96.438C377.695 100.55 377.437 104.747 376.834 106.375L375.888 109.116L380.189 108.688C386.21 108.088 394.898 103.634 399.026 98.9222C408.66 87.9576 408.832 70.0543 399.285 58.1474C392.919 50.0952 381.909 43.4993 370.039 40.5868C361.782 38.5309 345.697 38.7879 336.751 41.1007C311.979 47.4397 298.818 64.2293 296.41 92.5833C295.808 99.5218 297.098 113.656 298.99 121.451C306.388 150.747 327.375 170.107 361.61 179.101C377.953 183.384 388.791 184.669 409.864 184.584C427.068 184.584 429.734 184.412 439.54 182.271C494.934 170.535 527.104 140.04 531.663 95.0674C533.813 73.2238 528.308 53.8643 517.298 44.7842C504.31 33.9909 480.483 32.1063 468.957 40.9294C462.42 45.8978 459.926 57.7191 463.882 64.7433C465.947 68.3411 473 73.7378 475.752 73.7378C476.957 73.7378 477.387 73.1381 477.387 71.4249C477.387 67.3131 481.257 62.0878 485.558 60.4602C492.697 57.7191 499.751 60.9742 503.621 69.0264C505.6 72.9668 505.944 74.5087 505.428 77.7638C504.396 85.559 498.288 92.4119 489.945 95.1531C487.881 95.8384 483.924 96.0954 479.537 95.8384C461.904 94.8961 445.819 80.762 444.185 64.6576C442.034 44.2702 454.593 27.9946 475.838 23.5402C483.322 21.9126 498.805 22.4266 507.492 24.4824C525.9 28.9368 540.436 41.7004 546.715 58.9183C548.006 62.4304 549.468 65.0859 549.898 64.9146C550.414 64.7433 551.446 62.6874 552.306 60.2032C556.951 46.5831 566.671 35.2758 578.971 29.2795C589.981 23.9685 595.4 22.7692 609.421 22.7692C618.538 22.7692 622.667 23.1975 626.538 24.3968C646.751 30.4787 656.471 43.5849 655.267 63.1157C654.751 71.5106 652.342 76.9072 646.407 82.8179C636.946 92.2406 620.689 96.6094 608.388 93.0116C605.894 92.2406 602.453 90.2704 600.131 88.2145C592.476 81.6186 591.96 72.5385 598.755 64.829C604.776 58.0617 611.657 57.5477 617.592 63.4584C619.571 65.4286 621.291 68.2554 621.893 70.2256C622.925 74.2517 623.355 74.3374 627.742 72.1102C634.021 68.8551 637.72 62.9444 637.72 55.7489C637.806 46.4118 630.839 39.1305 619.312 36.5607C599.529 32.0206 581.208 40.0728 573.208 56.8625C569.251 65.2573 567.703 72.9668 567.703 85.3877C567.703 111.429 575.961 132.416 593.164 149.462C608.905 165.138 633.333 177.217 660.772 182.699C669.202 184.412 672.986 184.669 688.985 184.584C732.079 184.498 762.701 174.561 782.054 154.431C797.107 138.669 804.59 116.74 803.042 92.155C802.096 75.6223 798.139 65.3429 789.107 55.7489C779.904 46.0691 768.378 41.1007 751.088 39.3875C727.434 36.989 704.124 47.7823 696.038 65.0003C693.974 69.369 693.716 70.9109 693.716 78.8774C693.716 86.7583 693.974 88.4715 696.038 92.6689C700.167 101.492 708.597 107.745 717.714 108.688L721.843 109.116L721.241 105.518C720.553 101.149 722.187 90.6131 724.338 86.5013C726.402 82.3896 731.219 78.3635 735.176 77.2499C739.734 75.965 748.766 76.0506 752.035 77.4212C760.12 80.8477 764.765 88.3859 765.367 99.1792C765.711 105.518 765.539 106.717 763.475 110.915C757.712 122.65 744.121 129.418 726.402 129.418C717.198 129.418 710.575 127.876 702.318 123.935C681.244 113.656 668.685 87.1866 675.223 66.7992C681.674 46.8401 700.855 31.421 725.972 26.0243C736.724 23.7115 757.282 23.9685 767.517 26.4526C794.182 33.0486 812.934 51.3801 820.675 78.4491C825.32 94.7248 823.17 117.511 815.256 134.814C809.923 146.379 813.45 144.323 839.512 120.852C879.08 85.2164 893.96 72.7098 911.766 60.0319C938.172 41.2721 964.321 29.2795 989.61 24.3111C1000.45 22.1696 1027.11 22.1696 1037.35 24.3111C1065.82 30.2217 1084.05 43.3279 1094.46 65.2573C1099.11 74.937 1100.57 81.3616 1100.48 91.7267C1100.4 117.853 1085.86 137.984 1060.83 146.636C1047.33 151.261 1024.96 153.146 1013.69 150.49C990.642 145.094 974.987 126.42 977.912 108.002C979.718 96.952 985.825 88.8142 995.889 84.1884C1000.02 82.3039 1002 81.8756 1008.53 81.8756C1018.34 81.8756 1024.1 83.7601 1029.18 88.6428C1038.29 97.3803 1036.23 112.714 1025.13 118.367C1023.33 119.31 1021.87 120.338 1021.87 120.766C1021.87 122.393 1025.56 125.991 1029 127.619C1036.23 131.131 1051.54 129.503 1061.6 124.107C1073.04 118.025 1078.64 107.146 1078.64 90.87C1078.64 77.0786 1074.42 66.1995 1065.48 57.2908C1053 44.8699 1037.09 39.3019 1014.12 39.3019C971.116 39.3019 939.893 56.3485 864.027 121.622C826.782 153.574 814.482 164.796 815.342 165.652C815.944 166.252 820.159 165.395 828.933 162.997C856.027 155.373 868.07 154.259 885.359 157.772C902.734 161.284 914.432 167.194 925.528 178.245C933.958 186.554 938.947 195.12 942.043 206.256C944.538 215.336 944.71 235.724 942.387 244.632C938.689 259.109 929.657 272.558 918.303 280.524C896.111 296.2 862.393 300.741 837.792 291.232C815.17 282.58 799.085 261.593 801.322 243.861C803.386 227.586 814.052 217.992 830.911 216.964C841.233 216.364 847.168 218.163 852.501 223.474C857.146 228.185 858.866 232.897 858.178 239.578C857.06 250.714 849.748 256.882 837.448 257.31C834.524 257.396 832.631 257.91 832.631 258.424C832.631 259.88 838.48 267.418 841.835 270.245C853.791 280.353 880.284 279.753 899.551 268.96C906.777 264.934 916.152 255.083 919.421 248.144C929.313 227.671 924.238 200.602 908.067 186.383C902.906 181.842 892.068 176.274 884.671 174.39C868.93 170.278 848.458 172.677 818.009 182.099C793.838 189.638 752.723 197.604 719.091 201.459C698.017 203.772 675.395 204.029 662.148 201.887C621.291 195.463 584.218 174.904 565.123 148.178C560.994 142.267 554.199 129.589 551.532 122.565L550.328 119.567L549.468 121.708C541.984 139.097 532.437 153.574 521.599 163.682C490.633 192.464 443.841 208.226 399.285 204.971C365.738 202.401 314.989 192.55 280.411 181.757C258.563 174.99 239.984 171.734 227.511 172.505C211.684 173.533 200.244 178.416 190.008 188.524C179.515 198.889 175.386 209.34 175.386 225.358C175.3 240.692 179.343 250.629 189.664 260.908C199.728 271.016 212.803 276.498 228.457 277.355C245.058 278.297 257.015 273.5 264.24 263.05C265.96 260.48 267.509 258.167 267.509 257.91C267.509 257.653 264.928 257.31 261.746 257.225C250.822 256.968 243.854 251.657 241.704 242.062C238.521 227.671 248.843 216.792 265.788 216.792C280.755 216.792 291.593 223.303 296.066 235.038C305.097 258.681 285.572 285.321 253.23 293.545C244.026 295.858 229.92 296.8 221.06 295.601Z" fill="#EEC28C"/>
</g>
<defs>
<clipPath id="clip0_17_8451">
<rect width="1101" height="404" fill="white" transform="matrix(1 0 0 -1 0 404)"/>
</clipPath>
</defs>
</svg>
