<svg width="204" height="99" viewBox="0 0 204 99" fill="none" xmlns="http://www.w3.org/2000/svg">
<g clip-path="url(#clip0_17_8443)">
<path d="M103.576 14.6362C105.613 15.3107 106.805 17.4305 106.968 20.668C107.016 21.593 106.987 21.8627 106.776 22.7396C106.488 23.9151 105.988 25.3508 104.854 28.2318C103.816 30.8815 103.634 31.4693 103.211 33.5794C102.759 35.8437 102.192 39.0427 102.192 39.2932C102.192 39.4088 102.154 39.5148 102.115 39.5437C102.067 39.5726 101.875 38.6476 101.673 37.501C100.77 32.2883 100.559 31.45 99.1845 27.75C98.4445 25.7266 97.8488 23.9151 97.6085 22.9323C97.3587 21.9013 97.3875 19.8489 97.6566 18.5482C98.0602 16.6404 99.0403 15.2432 100.338 14.7325C101.135 14.4242 102.778 14.376 103.576 14.6362Z" fill="#EEC28C"/>
<path d="M118.595 23.5971C120.738 24.3391 121.449 26.6708 120.066 28.4245C119.393 29.2724 117.99 29.995 115.021 31.026C113.06 31.7005 111.965 32.2208 110.783 33.0109C109.851 33.6276 108.477 34.8995 107.746 35.8245L107.247 36.4508L107.112 36.1232C106.651 35.0055 107.631 32.0667 109.342 29.4362C110.504 27.6536 112.032 25.9385 113.387 24.9075C114.06 24.3969 115.492 23.6742 116.145 23.52C116.827 23.3562 118.019 23.3948 118.595 23.5971Z" fill="#EEC28C"/>
<path d="M88.9024 23.6453C90.2766 24.0982 91.6027 25.0232 93.0345 26.5263C95.2254 28.8195 97.1569 32.2594 97.5893 34.6201C97.695 35.2271 97.647 36.0654 97.4836 36.3255C97.4067 36.4508 97.3683 36.4315 97.2241 36.2292C96.8302 35.6607 95.898 34.6586 95.3215 34.1672C93.9377 32.9917 93.0056 32.4906 90.1805 31.3729C86.577 29.9565 85.8178 29.5807 84.9145 28.7617C84.2034 28.1161 83.8863 27.4224 83.8863 26.4974C83.8863 25.9385 83.9344 25.6688 84.1073 25.3315C84.4533 24.6185 84.9434 24.1271 85.6448 23.7802C86.2214 23.4911 86.3752 23.4622 87.2496 23.443C88.0472 23.4141 88.3259 23.4526 88.9024 23.6453Z" fill="#EEC28C"/>
<path d="M138.804 25.7266C141.091 26.0253 143.099 26.9792 144.32 28.357C145.694 29.8891 146.357 32.2016 146.107 34.5237C145.751 37.7805 143.916 39.9966 140.774 40.9794C139.573 41.3552 138.679 41.4612 137.247 41.4034C135.883 41.3456 135.172 41.201 133.202 40.594C132.433 40.3531 132.039 40.276 131.972 40.3435C131.828 40.488 138.862 46.751 141.889 49.1599C146.539 52.8695 149.297 54.2185 152.872 54.5365C155.707 54.7966 158.042 54.1221 159.57 52.6094C160.742 51.4531 161.146 50.4607 161.146 48.7552C161.146 47.4833 160.992 46.8859 160.454 46.0862C160.089 45.5466 159.743 45.2383 159.109 44.9107C158.186 44.4482 156.456 44.2651 155.736 44.5734C155.351 44.7276 154.852 45.1612 154.852 45.325C154.852 45.3828 155.073 45.5466 155.332 45.6912C155.966 46.0477 156.226 46.5487 156.235 47.4063C156.245 48.4372 155.813 49.0443 154.698 49.5453C154.064 49.8344 152.814 49.8537 152.113 49.5839C151.008 49.1599 150.364 48.4758 150.028 47.3677C149.461 45.4984 150.47 43.5906 152.565 42.5885C153.574 42.0971 154.438 41.9141 155.726 41.9141C159.531 41.9141 162.308 43.5714 163.25 46.4138C163.481 47.0979 163.5 47.3003 163.5 48.7167C163.5 50.0849 163.471 50.3354 163.269 50.9328C162.308 53.7849 160.156 55.5675 156.87 56.2227C155.803 56.4346 153.641 56.5117 152.449 56.3768C148.923 55.9721 145.684 54.5172 141.831 51.5977C140.092 50.2776 139.371 49.6609 135.777 46.3945C134.239 44.9974 132.74 43.6484 132.433 43.3979C131.674 42.7716 131.587 42.8872 131.972 44.0242C132.615 45.9417 132.788 48.4661 132.385 50.0078C131.789 52.2529 130.367 54.1607 128.512 55.2013C126.888 56.107 124.553 56.4635 122.372 56.1263C121.219 55.9529 120.585 55.7602 119.7 55.3266C118.201 54.5846 117.087 53.4862 116.404 52.0794C115.809 50.8461 115.732 50.056 116.097 48.7648C116.376 47.7435 116.875 46.9245 117.702 46.1055C118.903 44.901 120.094 44.4193 121.843 44.4193C123.765 44.4193 125.187 45.1034 125.879 46.356C126.139 46.8281 126.168 46.963 126.168 47.7435C126.168 48.5047 126.129 48.6781 125.899 49.1695C125.456 50.0656 124.861 50.3932 123.669 50.3932C122.737 50.3932 122.064 50.0656 121.661 49.4008C121.421 49.0057 121.373 48.813 121.334 48.1289C121.305 47.6664 121.334 47.1943 121.401 47.0112L121.507 46.7029L121.027 46.751C120.354 46.8185 119.383 47.3195 118.922 47.8495C117.846 49.0828 117.827 51.0966 118.893 52.4359C119.604 53.3417 120.834 54.0836 122.16 54.4112C123.083 54.6425 124.88 54.6135 125.879 54.3534C128.647 53.6404 130.117 51.7518 130.386 48.5625C130.453 47.782 130.309 46.1922 130.098 45.3154C129.271 42.0201 126.927 39.8425 123.102 38.8307C121.276 38.349 120.066 38.2044 117.711 38.2141C115.789 38.2141 115.492 38.2333 114.396 38.4742C108.208 39.7943 104.614 43.2245 104.104 48.2831C103.864 50.7401 104.479 52.9177 105.709 53.9391C107.16 55.1531 109.822 55.3651 111.11 54.3727C111.84 53.8138 112.119 52.4841 111.677 51.694C111.446 51.2893 110.658 50.6823 110.351 50.6823C110.216 50.6823 110.168 50.7497 110.168 50.9424C110.168 51.4049 109.736 51.9927 109.255 52.1758C108.458 52.4841 107.67 52.118 107.237 51.2122C107.016 50.769 106.978 50.5956 107.035 50.2294C107.151 49.3526 107.833 48.5818 108.765 48.2734C108.996 48.1964 109.438 48.1674 109.928 48.1964C111.898 48.3023 113.695 49.8922 113.877 51.7036C114.117 53.9969 112.714 55.8276 110.341 56.3286C109.505 56.5117 107.775 56.4539 106.805 56.2227C104.748 55.7216 103.124 54.2859 102.423 52.3492C102.279 51.9542 102.115 51.6555 102.067 51.6747C102.01 51.694 101.894 51.9253 101.798 52.2047C101.279 53.7367 100.193 55.0086 98.8193 55.6831C97.5893 56.2805 96.9839 56.4154 95.4176 56.4154C94.399 56.4154 93.9377 56.3672 93.5053 56.2323C91.2471 55.5482 90.1613 54.074 90.2958 51.8771C90.3534 50.9328 90.6225 50.3258 91.2856 49.6609C92.3426 48.601 94.1588 48.1096 95.5329 48.5143C95.8116 48.601 96.1959 48.8227 96.4554 49.0539C97.3106 49.7958 97.3683 50.8172 96.6091 51.6844C95.9365 52.4456 95.1677 52.5034 94.5047 51.8385C94.2837 51.6169 94.0915 51.299 94.0242 51.0773C93.9089 50.6245 93.8609 50.6148 93.3708 50.8654C92.6693 51.2315 92.2561 51.8964 92.2561 52.7057C92.2465 53.756 93.0248 54.575 94.3125 54.8641C96.5227 55.3747 98.5695 54.469 99.4631 52.5805C99.9052 51.6362 100.078 50.769 100.078 49.3719C100.078 46.4427 99.1556 44.082 97.2338 42.1646C95.4752 40.4013 92.7462 39.0427 89.6808 38.426C88.7391 38.2333 88.3163 38.2044 86.5289 38.2141C81.7146 38.2237 78.2937 39.3414 76.1316 41.6057C74.4499 43.3786 73.6139 45.8453 73.7869 48.6107C73.8926 50.4703 74.3346 51.6266 75.3436 52.7057C76.3718 53.7945 77.6595 54.3534 79.5909 54.5461C82.2335 54.8159 84.8377 53.6018 85.7409 51.6651C85.9716 51.1737 86.0004 51.0003 86.0004 50.1042C86.0004 49.2177 85.9716 49.025 85.7409 48.5529C85.2797 47.5604 84.338 46.857 83.3194 46.751L82.8581 46.7029L82.9254 47.1076C83.0023 47.599 82.8197 48.7841 82.5795 49.2466C82.3488 49.7091 81.8107 50.162 81.3687 50.2872C80.8594 50.4318 79.8504 50.4221 79.4852 50.268C78.582 49.8826 78.0631 49.0346 77.9958 47.8206C77.9574 47.1076 77.9766 46.9727 78.2072 46.5005C78.851 45.1805 80.3693 44.4193 82.3488 44.4193C83.377 44.4193 84.117 44.5927 85.0395 45.0359C87.3938 46.1922 88.7967 49.1695 88.0664 51.4628C87.3457 53.7078 85.2028 55.4422 82.3969 56.0492C81.1957 56.3094 78.8991 56.2805 77.7556 56.001C74.7766 55.2591 72.6818 53.1971 71.817 50.1523C71.2981 48.3216 71.5383 45.7586 72.4224 43.8122C73.0181 42.5115 72.6241 42.7427 69.7125 45.3828C65.2922 49.3911 63.6298 50.7979 61.6406 52.224C58.6906 54.3341 55.7693 55.6831 52.9441 56.2419C51.7334 56.4828 48.7545 56.4828 47.6109 56.2419C44.4302 55.5771 42.3931 54.1029 41.2303 51.6362C40.7114 50.5474 40.5481 49.8247 40.5577 48.6588C40.5673 45.72 42.1913 43.4557 44.9876 42.4825C46.4963 41.9622 48.9947 41.7503 50.2535 42.049C52.8288 42.656 54.5777 44.7565 54.251 46.8281C54.0492 48.0711 53.367 48.9865 52.2427 49.5068C51.7814 49.7187 51.5604 49.7669 50.8301 49.7669C49.7346 49.7669 49.0908 49.5549 48.5238 49.0057C47.5052 48.0229 47.7359 46.2982 48.9755 45.6622C49.1773 45.5562 49.3406 45.4406 49.3406 45.3924C49.3406 45.2094 48.9274 44.8047 48.5431 44.6216C47.7359 44.2266 46.0254 44.4096 44.9011 45.0167C43.6231 45.7008 42.9984 46.9245 42.9984 48.7552C42.9984 50.3065 43.4693 51.5302 44.4687 52.5323C45.862 53.9294 47.6398 54.5557 50.2055 54.5557C55.0102 54.5557 58.4984 52.6383 66.9738 45.2961C71.1347 41.7021 72.5088 40.4398 72.4127 40.3435C72.3455 40.276 71.8746 40.3724 70.8945 40.6422C67.8675 41.4997 66.5222 41.625 64.5907 41.2299C62.6496 40.8349 61.3427 40.17 60.1031 38.9271C59.1614 37.9924 58.6041 37.0289 58.2581 35.7763C57.9795 34.7549 57.9602 32.4617 58.2197 31.4596C58.6329 29.8312 59.6419 28.3185 60.9103 27.4224C63.3895 25.6591 67.1564 25.1484 69.9047 26.218C72.432 27.1911 74.2289 29.5518 73.9791 31.5464C73.7484 33.3771 72.5569 34.4562 70.6734 34.5719C69.5203 34.6393 68.8573 34.437 68.2615 33.8396C67.7426 33.3096 67.5504 32.7797 67.6273 32.0281C67.7522 30.7755 68.569 30.0818 69.9431 30.0336C70.2699 30.024 70.4813 29.9661 70.4813 29.9083C70.4813 29.7445 69.8278 28.8966 69.4531 28.5786C68.1174 27.4417 65.1577 27.5091 63.0052 28.7232C62.198 29.176 61.1506 30.2841 60.7854 31.0646C59.6803 33.3674 60.2473 36.4122 62.0538 38.0117C62.6304 38.5224 63.8412 39.1487 64.6676 39.3607C66.4261 39.8232 68.7131 39.5534 72.1149 38.4935C74.8151 37.6456 79.4084 36.7495 83.1656 36.3159C85.5199 36.0557 88.0472 36.0268 89.527 36.2677C94.0915 36.9904 98.2331 39.3029 100.366 42.3091C100.828 42.974 101.587 44.4 101.885 45.1901L102.019 45.5273L102.115 45.2865C102.951 43.3305 104.018 41.7021 105.229 40.5651C108.688 37.3276 113.916 35.5547 118.893 35.9208C122.641 36.2099 128.31 37.318 132.173 38.532C134.614 39.2932 136.69 39.6594 138.083 39.5727C139.851 39.457 141.129 38.9078 142.273 37.7708C143.445 36.605 143.906 35.4294 143.906 33.6276C143.916 31.9029 143.464 30.7852 142.311 29.6289C141.187 28.4919 139.726 27.8753 137.978 27.7789C136.123 27.6729 134.787 28.2125 133.98 29.388C133.788 29.6771 133.615 29.9372 133.615 29.9661C133.615 29.9951 133.903 30.0336 134.259 30.0432C135.479 30.0721 136.257 30.6695 136.498 31.7487C136.853 33.3675 135.7 34.5911 133.807 34.5911C132.135 34.5911 130.924 33.8589 130.425 32.5388C129.416 29.8794 131.597 26.8828 135.21 25.9578C136.238 25.6977 137.814 25.5917 138.804 25.7266Z" fill="#EEC28C"/>
</g>
<path d="M1.86328 92V78.5625H4.85156V83.7578H9.57812V78.5625H12.5469V92H9.57812V86.3555H4.85156V92H1.86328ZM15.7305 92V78.5625H24.1387V81.0625H18.7188V83.8164H23.3184V86.3359H18.7188V89.5098H24.3438V92H15.7305ZM29.6367 92V81.0625H25.9258V78.5625H36.3359V81.0625H32.625V92H29.6367ZM50.3496 92.2441C49.1452 92.2441 48.084 91.9642 47.166 91.4043C46.248 90.8444 45.5319 90.0404 45.0176 88.9922C44.5098 87.944 44.2559 86.6875 44.2559 85.2227C44.2559 83.7578 44.5098 82.5111 45.0176 81.4824C45.5319 80.4538 46.248 79.6693 47.166 79.1289C48.084 78.5885 49.1452 78.3184 50.3496 78.3184C51.554 78.3184 52.612 78.5918 53.5234 79.1387C54.4414 79.679 55.1543 80.4635 55.6621 81.4922C56.1764 82.5208 56.4336 83.7643 56.4336 85.2227C56.4336 86.6875 56.1764 87.944 55.6621 88.9922C55.1543 90.0404 54.4414 90.8444 53.5234 91.4043C52.612 91.9642 51.554 92.2441 50.3496 92.2441ZM50.3496 89.6758C51.2806 89.6758 52.0195 89.2754 52.5664 88.4746C53.1133 87.6673 53.3867 86.5833 53.3867 85.2227C53.3867 83.862 53.1133 82.8008 52.5664 82.0391C52.0195 81.2773 51.2806 80.8965 50.3496 80.8965C49.4251 80.8965 48.6895 81.2773 48.1426 82.0391C47.5957 82.8008 47.3223 83.862 47.3223 85.2227C47.3223 86.5833 47.5957 87.6673 48.1426 88.4746C48.6895 89.2754 49.4251 89.6758 50.3496 89.6758ZM58.9727 92V78.5625H63.7969C64.7474 78.5625 65.6133 78.6895 66.3945 78.9434C67.1758 79.1973 67.8008 79.627 68.2695 80.2324C68.7383 80.8379 68.9727 81.6712 68.9727 82.7324C68.9727 83.7546 68.7383 84.5911 68.2695 85.2422C67.8008 85.8867 67.1758 86.3652 66.3945 86.6777C65.6133 86.9837 64.7474 87.1367 63.7969 87.1367H61.9609V92H58.9727ZM61.9609 84.7734H63.5527C65.2129 84.7734 66.043 84.0931 66.043 82.7324C66.043 82.0553 65.8314 81.5866 65.4082 81.3262C64.985 81.0658 64.3665 80.9355 63.5527 80.9355H61.9609V84.7734ZM66.2676 92L63.2402 86.3359L65.3203 84.4414L69.5879 92H66.2676ZM81.9023 92H78.748L77.8984 88.7676H73.7578L72.9082 92H69.8711L74.0898 78.5625H77.6543L81.9023 92ZM74.7051 85.1641L74.373 86.4434H77.2832L76.9512 85.1641C76.7754 84.487 76.5931 83.7708 76.4043 83.0156C76.222 82.2604 76.0397 81.5312 75.8574 80.8281H75.7793C75.6165 81.5378 75.4408 82.2702 75.252 83.0254C75.0632 83.7741 74.8809 84.487 74.7051 85.1641ZM83.3477 92V78.5625H86.3359V84.1094H86.4238L90.4766 78.5625H93.7578L89.6953 83.9238L94.5 92H91.248L87.9473 86.2773L86.3359 88.377V92H83.3477ZM95.9844 92V78.5625H104.393V81.0625H98.9727V83.8164H103.572V86.3359H98.9727V89.5098H104.598V92H95.9844ZM107.254 92V78.5625H110.242V89.5098H115.584V92H107.254ZM126.609 92L122.625 78.5625H125.77L127.332 84.8711C127.521 85.6133 127.7 86.3327 127.869 87.0293C128.038 87.7194 128.224 88.4355 128.426 89.1777H128.504C128.712 88.4355 128.895 87.7194 129.051 87.0293C129.207 86.3327 129.383 85.6133 129.578 84.8711L131.268 78.5625H134.324L130.174 92H126.609ZM146.102 92H142.947L142.098 88.7676H137.957L137.107 92H134.07L138.289 78.5625H141.854L146.102 92ZM138.904 85.1641L138.572 86.4434H141.482L141.15 85.1641C140.975 84.487 140.792 83.7708 140.604 83.0156C140.421 82.2604 140.239 81.5312 140.057 80.8281H139.979C139.816 81.5378 139.64 82.2702 139.451 83.0254C139.262 83.7741 139.08 84.487 138.904 85.1641ZM147.547 92V78.5625H150.623L154.188 85.3301C154.415 85.7793 154.64 86.2578 154.861 86.7656C155.089 87.2669 155.304 87.7682 155.506 88.2695H155.584C155.525 87.5599 155.447 86.7721 155.35 85.9062C155.258 85.0339 155.213 84.2005 155.213 83.4062V78.5625H158.064V92H155.008L151.424 85.2422C151.196 84.7865 150.971 84.3079 150.75 83.8066C150.535 83.3053 150.32 82.8008 150.105 82.293H150.018C150.089 83.0352 150.167 83.8294 150.252 84.6758C150.343 85.5221 150.389 86.3424 150.389 87.1367V92H147.547ZM167.684 92V78.5625H171.473C172.846 78.5625 174.035 78.8001 175.037 79.2754C176.046 79.7441 176.824 80.4701 177.371 81.4531C177.924 82.4297 178.201 83.6862 178.201 85.2227C178.201 86.7591 177.928 88.0286 177.381 89.0312C176.834 90.0339 176.069 90.7793 175.086 91.2676C174.103 91.7559 172.954 92 171.639 92H167.684ZM170.672 89.6172H171.287C172.062 89.6172 172.736 89.4772 173.309 89.1973C173.888 88.9108 174.337 88.4453 174.656 87.8008C174.982 87.1562 175.145 86.2969 175.145 85.2227C175.145 84.1484 174.982 83.3021 174.656 82.6836C174.337 82.0586 173.888 81.6159 173.309 81.3555C172.736 81.0885 172.062 80.9551 171.287 80.9551H170.672V89.6172ZM183.016 92L179.031 78.5625H182.176L183.738 84.8711C183.927 85.6133 184.106 86.3327 184.275 87.0293C184.445 87.7194 184.63 88.4355 184.832 89.1777H184.91C185.118 88.4355 185.301 87.7194 185.457 87.0293C185.613 86.3327 185.789 85.6133 185.984 84.8711L187.674 78.5625H190.73L186.58 92H183.016ZM198.113 92.2441C196.876 92.2441 195.76 91.9837 194.764 91.4629C193.774 90.9421 192.99 90.1738 192.41 89.1582C191.831 88.1361 191.541 86.873 191.541 85.3691C191.541 83.8848 191.834 82.6185 192.42 81.5703C193.012 80.5156 193.803 79.7116 194.793 79.1582C195.783 78.5983 196.876 78.3184 198.074 78.3184C199.051 78.3184 199.887 78.4909 200.584 78.8359C201.287 79.181 201.86 79.5846 202.303 80.0469L200.73 81.8633C200.405 81.5573 200.04 81.3197 199.637 81.1504C199.24 80.9811 198.751 80.8965 198.172 80.8965C197.124 80.8965 196.268 81.2839 195.604 82.0586C194.939 82.8333 194.607 83.901 194.607 85.2617C194.607 86.6549 194.923 87.7389 195.555 88.5137C196.186 89.2884 197.137 89.6758 198.406 89.6758C198.686 89.6758 198.96 89.64 199.227 89.5684C199.493 89.4967 199.715 89.3958 199.891 89.2656V86.8926H197.615V84.4609H202.527V90.623C202.065 91.0788 201.447 91.4629 200.672 91.7754C199.897 92.0879 199.044 92.2441 198.113 92.2441Z" fill="#EEC28C"/>
<defs>
<clipPath id="clip0_17_8443">
<rect width="123" height="74" fill="white" transform="matrix(-1 -8.74228e-08 -8.74228e-08 1 163.5 0)"/>
</clipPath>
</defs>
</svg>
