<?xml version="1.0" encoding="UTF-8"?>
<svg id="Layer_1" xmlns="http://www.w3.org/2000/svg" viewBox="0 0 128.08 127.22">
  <defs>
    <style>
      .cls-1 {
        fill: #8fbad3;
      }

      .cls-2 {
        fill: #ac523b;
      }

      .cls-3 {
        fill: #a8c6d8;
      }

      .cls-4 {
        fill: #b9d0db;
      }

      .cls-5 {
        fill: #d2e2e9;
      }

      .cls-6 {
        fill: #a6b9c1;
      }

      .cls-7 {
        fill: #d3e5ed;
      }
    </style>
  </defs>
  <path class="cls-4" d="M78.8,33.68c-7.37.16-14.28,2.94-21.56,3.72-2.55.27-3.65,2.68-4.19,5.08-.44,1.96-.38,3.97-.38,5.97,0,.69,0,1.38,0,2.06l-10.1,6.5c-.46-4.9-1-9.78-1.82-14.65-.64-3.76-2.17-6.08-6.05-6.81-8.4-1.58-16.33-4.55-24.01-8.28-1.99-.97-4.1-2.49-6.56-1.04.39,9.34.77,18.68,1.16,28.02l4.68,68.29s10.65,8.06,60.01,2.73c0,0,11.16-2.82,18.74-5.48,7.59-2.65,5.82-45.27,8.35-93.51-6.6,3.23-18.26,7.39-18.26,7.39Z"/>
  <path class="cls-5" d="M34.37,4.95c3.17-.32,5.92-.61,8.68-.89,11.46-.06,22.9.07,34.06,3.21,6.25,3.31,13.3,4.78,19.28,8.77,6.37,4.24,6.57,5.52.66,10.25-5.15,4.53-10.96,7.57-17.93,7.99-6.92,1.49-13.65,3.82-20.85,4.11-4.06.16-4.11,3.72-4.13,6.74-.05,11.3-.12,22.59.03,33.89.04,3.5-.35,5.67-4.75,5.35-3.66-.26-6.23.28-6.51-5.22-.66-12.99-2.48-25.92-3.81-38.87-.15-1.47-.73-2.67-2.28-2.84-11.73-1.33-21.93-7.05-32.69-11.19-5.78-5.12-5.6-6.38,1.26-10.23,6.81-3.82,14.05-6.64,21.48-9.05l7.51-2.01Z"/>
  <path class="cls-3" d="M67.33,108.25c7.94-2.16,14.65-6.61,21.3-11.23,1.16-.81,2.02-2.86,3.57-2.18,1.83.8.56,2.97.99,4.48,1.65-2.16.5-4.7.97-7.02,2.24-3.11,1.35-6.65,1.41-10.07.89-12.84,2.33-25.65,1.99-38.56-.38-3.47,2-7.05-.39-10.44-.03-2.31-.07-4.62-.1-6.93-5.98,2.66-11.96,5.32-17.93,7.99.21.45.51.89.6,1.36,3.03,15.69,1.27,30.93-5.66,45.24-2.47,5.1-4.58,11.18-10.96,13.38,0,0-.34,3.35-54.76,4.72l.82,11.95s28.77,4.39,58.16-2.68Z"/>
  <path class="cls-7" d="M96.23,43.32c.31-3.36.62-6.73.94-10.09,4.23-.07,8.28-1.36,12.72-.34,11.97,2.76,15.89,6.67,17.36,18.68.07.6.54,1.15.83,1.73-1.75,3.15-.6,6.61-1.04,9.9-.21,3.79-.79,7.43-3.99,10.03-6.98,10.38-16.07,17.55-28.89,19.07.03-3.38.07-6.77.1-10.15,1.63-2.1,4.21-2.53,6.39-3.65,10.39-5.31,14.94-14.13,15.06-25.44.05-5.25-3.06-8.04-8.36-8.48-3.72-.31-7.63,1.02-11.13-1.26Z"/>
  <path class="cls-6" d="M39.39,11.48c.19-.04.38-.07.57-.11,4.13-.78,8.31-.96,12.5-.83,5.56.18,11.09,1,16.48,2.34s10.96,3.29,16.21,5.54c1.83.78,3.64,1.6,5.43,2.46-6.52,4.2-13,6.51-19.59,8.14-16.5,4.09-32.87,3.32-48.87-2.69-2.77-1.04-5.44-2.37-8.12-3.65-2.58-1.23-1.67-2.44.21-3.36,2.69-1.33,5.43-2.43,8.31-3.29,2.87-.86,5.76-1.62,8.64-2.46,2.71-.8,5.45-1.54,8.22-2.09Z"/>
  <path class="cls-1" d="M92.94,94.02c-1.79-.98-3.37.86-4.77,1.92-4.37,3.31-9.08,6.03-13.92,8.57-1.97,1.03-4.35,1.37-6.08,2.83-12.48,3.58-20.33,4.54-58.99,3.59l.8,11.63s9.07,8.34,60.44,2.73c3.37-.83,6.77-1.54,10.09-2.51q12.6-3.7,13.2-16.61c-.03-2.28-.05-4.56-.07-6.84.38-1.87,1.4-4.15-.68-5.3Z"/>
  <path class="cls-2" d="M75.51,44c-.03.05-.08.09-.12.13-.82.72-2.64,2.23-3.8,1.47-.32-.21-.49-.57-.62-.93-.54-1.51-.45-3.07-.44-4.64,0-1.1-.43-1.85-1.63-1.84-2.59.03-1.79,2.42-1.68,3.84.37,5.1.97,10.18,1.51,15.26.09.82.42,1.61.46,2.43.16,3.55.4,7.71-4.12,8.33-4.7.64-4.78-3.89-5.31-6.94-.97-5.57-.73-11.25-.68-16.9.02-2.09.75-4.31-.7-6.26-.91-3.01-3.24-2.08-5.32-1.96-1.93.12-4.4.8-3.44-2.75,1.52-1.7,3.56-2.38,5.7-2.73,7.66-1.23,15.33-2.42,22.99-3.62,2.7.17,5.19.6,5.15,4.16-.46.48-.86,1.29-1.39,1.39-1.89.35-3.83,1.07-5.12,2.56-1.09,1.26-1.55,2.89-1.66,4.53-.09,1.4.09,2.81.25,4.2,0,.08.02.16-.01.23,0,.01-.01.03-.02.04Z"/>
</svg>