<?xml version="1.0" encoding="UTF-8"?>
<svg id="Layer_1" data-name="Layer 1" xmlns="http://www.w3.org/2000/svg" version="1.1" viewBox="0 0 1182.8 1179.2">
  <defs>
    <style>
      .cls-1 {
        fill: #488c3f;
      }

      .cls-1, .cls-2, .cls-3, .cls-4, .cls-5, .cls-6, .cls-7, .cls-8, .cls-9, .cls-10 {
        stroke-width: 0px;
      }

      .cls-2 {
        fill: #e3743d;
      }

      .cls-3 {
        fill: #01619e;
      }

      .cls-4 {
        fill: #1b1b27;
      }

      .cls-5 {
        fill: #232e40;
      }

      .cls-6 {
        fill: #ae9c2c;
      }

      .cls-11, .cls-12 {
        isolation: isolate;
      }

      .cls-7 {
        fill: #e3b105;
      }

      .cls-12 {
        fill: #000;
        font-family: Ravie, Ravie;
        font-size: 84.8px;
      }

      .cls-8 {
        fill: #e3dd05;
      }

      .cls-9 {
        fill: #79aab8;
      }

      .cls-10 {
        fill: #fff;
      }
    </style>
  </defs>
  <path id="flick-it" class="cls-1" d="M939.9,173.9l-70.2-55.9s0-.2.2-.2c1-1.4,2.9-3,2.2-5h0c-.7-2.2-2.9-3.1-4.9-3.7-5.8-1.8-12.3-1.7-18.3-1.5-30.8.9-32.3-26-35-32.9s0-19.9-27.5-16.3-35-5.4-40.1-17.2-14.5-24.5-29.3-27.2-43.2,36.5-47.7,62.2c-4.5,25.7,27.8,30.2,37.7,23.9,10-6.3,27.2-11.2,32.6-1.2,5.4,10,16,18.4,43.2,20.8,27.2,2.4,26,41.1,27.8,61.6.2,2.7,1,12.3,5.1,13.1.7.2,1.5,0,2.4-.4,2.6-1.4,4.1-4.3,5.5-6.8l64.8,51.6,51.6-64.8h0Z"/>
  <path id="pull-it" class="cls-3" d="M458.4,969c-7.6-6.3-16.9-10.4-26.6-12.5-8.3-1.8-16.8-1.5-25.2-1.7-16.4-.4-31.2-6.3-41.4-19.5-1.1-1.5-2.2-3-3.2-4.5-3.3-5.2-6.7-19-15.6-13.5-3.4,2.1-6.4,4.5-9.3,7.2-3.8,3.6-7.2,7.6-10.4,11.9l-71.3-49.9-15,21.4,71.5,50.1c-3.2,4.8-6.4,9.5-9.6,14.2-.9,1.2-1.7,2.4-2.6,3.7-5.8,8.1,1.6,13.3,9.7,13.1,9.4-.2,36.4,7.7,35.6,34.7-.8,27-7.8,83,14.2,98.1,22,15.1,52.4,15.7,96.6-41,12.5-16,21.9-34.9,23.6-55.4,1.7-20.6-4.6-42.8-21-56.3h0Z"/>
  <path id="spin-it" class="cls-2" d="M1101.4,812.9v-7.8h0v-8.5c0-1.1-.2-2.1-.3-3.2v-4.7c0-.4,0-.7-.2-1.1,0-.5,0-.9-.2-1.4,0-.3,0-.6-.2-.9v-.5c0-.4,0-.8-.2-1.2,0-.3,0-.6-.2-1,0-.3,0-.6-.2-.9v-.6c0-.5-.2-1.1-.4-1.6v-.2c0-.4-.2-.8-.3-1.2,0-.6-.3-1.2-.5-1.8,0-.4-.2-.9-.3-1.3-.2-.9-.5-1.8-.8-2.7l8.4-2.8h0c9.2-2.7,16.2-11,16.8-21.2.8-13-9.1-24.1-22.1-24.8-3.3-.2-6.5.3-9.4,1.4h-.3s-.2,0-.3.2l-15.4,6c-.6-.7-1.1-1.3-1.7-1.9,0,0-.2-.2-.2-.3-.7-.8-1.4-1.6-2.2-2.4-.2-.2-.4-.4-.6-.6-.6-.6-1.1-1.2-1.7-1.7-.2-.2-.5-.5-.7-.7-.6-.6-1.2-1.1-1.8-1.7-.2-.2-.4-.4-.6-.6-.8-.7-1.6-1.5-2.4-2.2h-.2c-.7-.6-1.4-1.2-2.1-1.8l-.2-.2c-.2-.2-.5-.4-.7-.6-.4-.4-.9-.7-1.3-1,0,0-.3-.2-.4-.3h-.2c-.2-.2-.5-.4-.7-.6-.3-.2-.6-.5-.9-.7-.2,0-.4-.3-.6-.4-.3-.2-.5-.4-.8-.6,0,0-.2,0-.3-.2,3.8-5,6.1-11.2,6.5-17.9,1.1-18.3-12.9-34-31.2-35.1-18.3-1.1-34,12.9-35.1,31.2h-17.3c-.7,0-1.5,0-2.2.2h-1.2c-.7,0-1.5.2-2.2.3-.4,0-.8,0-1.2.2-.8,0-1.6.2-2.4.4h-.8c-.5,0-1,.2-1.6.3h0c-.5,0-1,.2-1.5.3-.4,0-.7.2-1.1.2-.7.2-1.4.3-2.2.5-.4,0-.8.2-1.2.3-.7.2-1.4.3-2.1.5-.4,0-.7.2-1.1.3-.9.2-1.8.5-2.7.8l-2.8-8.4h0c-2.7-9.2-11-16.2-21.2-16.8-13-.7-24.1,9.1-24.8,22.1-.2,3.3.3,6.5,1.4,9.4h0v.3s0,.2.2.3l6,15.4c-.6.5-1.1.9-1.6,1.4s-.4.4-.7.6c-.8.7-1.5,1.4-2.3,2.1-.3.3-.6.6-.9.8-.5.5-1,.9-1.4,1.4l-.9.9c-.5.5-.9,1-1.4,1.4-.3.3-.6.6-.8.9-.7.7-1.4,1.5-2,2.2-.2.2-.4.5-.6.7-.5.6-1,1.1-1.5,1.7-.3.3-.6.7-.8,1-.3.4-.6.8-.9,1.1h0s0,.3-.2.3c-.3.4-.6.7-.8,1.1-.2.3-.4.5-.6.8,0,0-.2.2-.2.3,0,.2-.3.4-.4.5-.2.2-.4.5-.6.7-5-3.8-11.2-6.1-17.9-6.5-18.3-1.1-34,12.9-35.1,31.2s12.9,34,31.2,35.1v4.3h0v3.5h0v11.1c0,.7,0,1.4.2,2.1,0,.5,0,1.1.2,1.6v1.5c0,.6.2,1.2.3,1.8v.9c0,.6.2,1.1.3,1.7v.6c0,.3,0,.6.2.9v1.5c0,.6.2,1.2.4,1.7,0,.5.2,1,.4,1.5,0,.5.2,1,.4,1.5.2.6.3,1.2.5,1.8,0,.3.2.7.3,1,.2.6.3,1.2.5,1.7l-8.4,2.8h0c-9.2,2.7-16.2,11-16.8,21.2-.8,13,9.1,24.1,22.1,24.8,3.3.2,6.5-.3,9.4-1.4h.3s.2,0,.3-.2l15.4-5.9c7.4,8.7,16,16.4,25.7,22.6-3.5,5.2-5.5,11.5-5.5,18.3,0,18.3,14.9,33.2,33.2,33.2s33.2-14.9,33.2-33.2h1.3c13.8,0,27-2.4,39.3-6.9l3.3,8.2h0c3.3,9,11.9,15.5,22.1,15.5s23.5-10.5,23.5-23.5-.7-6.4-1.9-9.3h0l-.2-.3v-.3l-6.8-15.1c5.1-4.8,9.7-10.1,13.8-15.7,5,3.8,11.2,6.1,17.9,6.5,18.3,1.1,34-12.9,35.1-31.2s-12.9-34-31.2-35.1l-.2.2h0Z"/>
  <g id="twist-it">
    <path class="cls-8" d="M313.1,210.9c0,2.8-.2,4.8-1.8,7.3-3.5,5.7-9.5,7.1-14,11.6s-3,4.6-3.6,7.2c-1.3,5.1-1.6,9.9-1.1,15.2.4,5.1,1.1,10.6-1.5,15.2-1.2,2.1-3,3.8-4.7,5.4-3,2.8-6,5.7-7.9,9.4-3.9,7.5-2.4,15.3-1.7,23.4.7,8-2.4,11.8-7.6,17.3-2.6,2.7-4.4,6-6.3,9.1-.4.7-5.8,9.7-5.3,9.9,0,0-64.3-21.5-126.6-17,.6,0-1.5-15.4-1.6-16.2-2-11.5-5.4-22.9-10.3-33.4-2.6-5.6,0-11.7.9-17.6,1.9-13.5,0-26.8-7.6-38.3-.6-.8-1.2-1.7-1.3-2.7,0-.7,0-1.4.2-2.1,1.8-8.1,4-16.8,2.8-25.2-.9-5.9-3.1-11.5-5.8-16.8-2.2-4.3-7.7-10.3-6.8-15.4.4-2.8,2.8-5,5.4-6.2,11.1-5,26-3.5,37.8-2.5,16.1,1.4,32.1,4.2,47.9,7.8,7.6,1.7,15.2,3.7,22.8,5.8,58.9,16.8,97.8,31,98,48.9h-.3,0Z"/>
    <path class="cls-7" d="M257.4,341.7c-5.7-.5-11.1-1.1-16.4-1.6-9.9-3.4-25.9-6.7-44.2-8.8-15.2-1.8-29.2-2.3-39.4-1.9-17.7-2.8-26.5-4.7-26.5-4.7,62.3-4.5,126.6,17,126.6,17h-.1Z"/>
  </g>
  <g id="body">
    <g>
      <path class="cls-4" d="M871.7,113c1.1,0,3.6-1.9,4.7-2.4,1.9-.8,3.9-1.6,5.9-2s4-.8,6-.6,7,1.6,6.9,3-.2.7-.5,1c-14.3,19.9-28.8,39.8-43,59.8s-5.3,7.5-7.9,11.2c-1.3,1.8-2.6,3.6-3.8,5.5-5.1,7.3-10,14.7-14.9,22.1-1,1.5-1.8,3.2-3.1,4.4-6.1-3.7-7.4-15.2-6.6-21.1.7.2,1.5,0,2.4-.4,2.8-1.5,4.4-4.9,5.9-7.5,6.8-11.5,14.4-22.4,21.8-33.5,7.9-11.6,15.7-23.2,24.1-34.5,1.1-1.4,2.9-3,2.2-5h-.1Z"/>
      <path class="cls-9" d="M1110.7,346.7v-.2s-54.7-162.6-195.1-254.5c-2.2-1.4-5-2.3-7.5-1.1-2.1,1.1-3.2,3.2-4.5,5s-3.6,5.1-5.4,7.6c-14.3,20.3-28.6,40.6-43.1,60.9-10.6,14.9-21.4,29.8-31.6,45.1-3.4,5.2-6.8,10.4-10.1,15.6-.9,1.5-1.9,3-2.7,4.6-3.8,6.4-2,8.1,0,10,2.5,2.4,5.3,4.4,7.9,6.6,70.7,60.6,125.8,150.3,138.1,243.7,3.6,27.2,2.4,57.9-14.2,80.9,0,0,134.4,73.1,192.6-134.2-5.4-29-13.4-59.1-24.5-90h0Z"/>
      <path class="cls-9" d="M820.5,214.6h0c0-.1,0,0,0,0Z"/>
      <path class="cls-4" d="M820.4,214.6h0Z"/>
      <path class="cls-4" d="M1135.2,436.8h0c-58.2,207.2-192.6,134.1-192.6,134.1-22,30.3-77.3,46-106.9,17.8-19.6-18.7-34.8-38.3-34.8-38.3v-3.1c0-126.5-100.9-229.4-226.7-232.5h-6c-128.5,0-88.8,13.3-124.9,36.3-2,.6-4,1.1-6,1.6-21.3,5.2-42.4,8.2-64.4,7.8-37-.6-74.3-5.5-110.7-12.4-1.9-.3-3.7-.7-5.5-1.1-1.9-.4-3.8-.7-5.7-1.1-1-1.8-4.6-3.7-10.1-5.6-9.9-3.4-25.9-6.7-44.2-8.8-15.2-1.8-29.2-2.3-39.4-1.8-10.4.5-17,2.1-17.3,4.6v.5c-9.9.9-20,2.4-29.8,4.7-.6.1-1.2.3-1.7.4-2.3.6-4.6,1.2-6.9,1.9-.6.2-1.1.3-1.7.5-1.7.5-3.4,1.1-5,1.7-.6.2-1.1.4-1.7.6s-1.1.4-1.7.6c-2.2.8-4.4,1.7-6.5,2.7-.5.2-1.1.5-1.6.7l-1.6.8c-2.6,1.3-5.2,2.6-7.7,4.1-1,.6-2,1.2-3,1.8-1,.6-1.9,1.2-2.9,1.9-1.4,1-2.9,2-4.3,3-.4.3-.9.7-1.4,1-.4.3-.9.7-1.4,1.1-1.4,1.1-2.7,2.2-4,3.4-.4.3-.8.7-1.1,1-.5.5-1,.9-1.5,1.4l-1.2,1.2-1.1,1.1c-.9.9-1.7,1.8-2.5,2.8-.8.9-1.5,1.8-2.3,2.7-.4.4-.7.9-1,1.3-.4.6-.9,1.2-1.3,1.8-.3.4-.6.8-.9,1.2-.7,1-1.4,2-2,3-11.8,18.2-18.9,38.8-23,60.1-1,5.3-1.9,10.7-2.6,16.1-.3,2.7-.7,5.4-.9,8.1-.7,6.8-1.2,13.5-1.5,20.3,0,2.7-.2,5.4-.3,8.1,0,2.7,0,5.4-.2,8v4c-.7,55.6,6.7,111.2,15.6,165.9.7,4.2,1.4,8.2,2.2,12.3.4-7.6,8.3-118.4,134-125.5,8.3-.5,17.1-.5,26.5,0,10.3.5,21.2,1.7,32.9,3.5,10.6-14.9,26.8-25.7,49.4-28.5,47.6-5.9,61.2,20.4,61.2,20.4l.2-.3c4.3,124.7,106.7,224.4,232.5,224.4s79.5-10.6,113-29.2c.7,0,1.4-.2,2.1-.3,2.2-.3,4.5-.6,6.7-.8,24.1-2.4,48.5-1.8,72.5,1.7,22.3,3.3,45.2,8.3,65.9,17.4,5.1,2.2,10,4.9,14.6,7.9,7.7,5,14.4,11.2,19.2,18.6,4.5,6.7,7.4,14.5,8.2,23.4.7,6.8,1.9,13.6,3.8,20.2,1.2,4.1,2.6,8.1,4.4,11.9,4.5,9.8,10.5,18.9,17.5,27.1.5.6,1.1,1.2,1.6,1.8l.8-.3c6.7,7.9,14.5,15,23.1,20.8,4.9,3.2,10,6.1,15.3,8.6,15.9,7.4,33.4,11.4,51,11.4h3.7c11.9-.5,23.4-2.9,34.1-6.8l.2.4c15.1-5.3,28.7-13.6,40.1-24.3l-.3-.8c5.1-4.8,9.7-10.1,13.8-15.8.2.2.5.4.7.5,12.5-17.1,20.4-37.8,21.8-60.2.2-2.4.2-4.8.2-7.3,0,0-1.3-8.1,0-26,0-1.8,1.2-5.4,2.9-10.6,2.7-8.3,7.1-20.8,12-36.8,17.9-58.9,42.6-166.3,18-295.7h.1Z"/>
      <path class="cls-9" d="M356.5,866.7s2.5,1.4.6,5.7c-.2.5-1.8,2.9-4.4,6.7-.6.8-1.2,1.7-1.9,2.7-.9,1.3-1.9,2.8-3,4.3-.5.8-1.1,1.6-1.7,2.4-2,2.9-4.3,6.1-6.7,9.5-.4.5-.7,1-1.1,1.5,0,0-.2.3-.3.4-.6.8-1.2,1.6-1.8,2.5v.2h.1c-15.7,21.9-37.2,51.6-52.7,72.9h0c-.5.7-.9,1.3-1.4,2-1.2,1.6-2.4,3.3-3.5,4.8l-.9,1.2c-.5.6-.9,1.2-1.3,1.8-.2.2-.3.4-.5.6-.3.4-.6.8-.8,1.2l-2.4,3.3c-.2.3-.5.7-.8,1-1.5,2-2.8,3.8-3.9,5.3l-.9,1.2s0,.2-.2.3c-.2.2-.3.4-.5.7-1.2,1.5-2,2.7-2.6,3.3l-.2.2s-.2.2-.2.3c-4.1,4.5-8.2,3.6-11.5,1.1-3.2-2.4-182.4-127.1-220.2-317.4v-.4.4s3.8-118.5,134-125.9c8.3-.5,17.1-.5,26.5,0,10.2.5,21.2,1.7,32.8,3.5-19,26.7-20.3,66.8-9.1,99.2,26.6,77.5,77.1,151.9,140.5,203.8l.2-.3h-.2Z"/>
      <path class="cls-4" d="M336,902.7c4.3,3.4,4.5,11.7,1.3,21.9-6.5,6.1-11.8,13.5-16.8,20.9-1.2,1.8-2.5,3.7-3.7,5.5-4.7,7-9.4,14.2-14.3,21.2-7.5,5.1-14.3,6.8-18.4,3.9-.2-.2-.5-.4-.7-.6,15.5-21.3,36.9-50.9,52.6-72.8h0Z"/>
      <path class="cls-4" d="M336.1,902.5v.2h0c-15.7,22-37.1,51.6-52.6,72.8h0c15.5-21.3,37-51,52.7-73h-.1Z"/>
      <path class="cls-4" d="M165.7,560.5c-130.1,7.4-134,125.9-134,125.9v-.4c.4-7.6,8.3-118.4,134-125.5Z"/>
    </g>
    <circle class="cls-6" cx="568.3" cy="547.2" r="223.6"/>
  </g>
  <g id="bob-it">
    <circle class="cls-5" cx="568.3" cy="547.2" r="170.1"/>
    <g>
      <path class="cls-10" d="M468,532c.2,1.7.2,3.9-.2,6.7-.4,3.6-2.6,6.7-6.3,9.3-3.9,2.7-9.2,4.5-15.9,5.3s-11.9.3-16-1.8c-3.5-1.7-5.4-3.9-5.7-6.6s.2-3.3,1.4-4.7c1.3-1.6,3.4-2.8,6.2-3.6,1.4-.4,2.9-.7,4.4-.9,3.1-.4,5.6-.3,7.5.4,1.9.6,2.9,1.7,3.1,3.1.3,2.2-.6,4.1-2.7,5.9-1,.9-2.8,1.9-5.3,3.2-1,.5-1.5.9-1.4,1.2.1.9,2.1,1.1,5.9.6s5.5-1.2,7.4-2.3c2.4-1.4,3.5-3.1,3.2-5.1s-.1-.6-.2-1c-1.7-5.2-2.9-8.3-3.6-9.3-1.4-2-3.6-2.8-6.7-2.4s-2.2.4-4.1.9-3.3.8-4.2.9c-5.9.8-9.2-1.2-9.8-6s-.1-3.4.2-5.7c.4-3.1,1.9-5.7,4.5-7.8,3.1-2.5,7.5-4.2,13.3-5s10.7-.5,14.3,1c3.2,1.3,5,3.3,5.4,5.9.5,3.9-2.3,6.3-8.6,7.1s-5.7.2-8-.5c-2.1-.7-3.3-1.6-3.4-2.8-.2-1.7.9-3.3,3.4-4.6,1-.5,1.9-.9,2.9-1.4.9-.5,1.3-.9,1.3-1.3s-.8-.8-2.1-1.1c-1.3-.2-2.8-.2-4.5,0s-3.6.8-4.8,1.6c-1.4,1-2.1,2.2-1.9,3.7s.4,1.5.8,2.3c.7,1.6,1.4,3.2,2.1,4.8.8,1.7,1.8,2.8,3,3.5,1.6.8,3.9,1,7,.6s1.1-.2,2.6-.4c1.5-.3,2.6-.4,3.3-.5,3.5-.5,6.2-.3,8,.5,2.3,1,3.7,3.2,4.1,6.5v-.2Z"/>
      <path class="cls-10" d="M509.4,522.7c.6,4.2-2.4,6.7-8.7,7.6s-5.9.2-8.1-.7c-2.1-.8-3.2-1.9-3.4-3.4-.3-2.3.7-4.3,2.9-5.9,2-1.4,4.4-2.3,7.4-2.7s.3,0,.3,0c0-.3-.8-.5-2.2-.8-1.6-.3-3.3-.4-5-.2-7.4,1-10.7,4.8-9.8,11.4s.3,1.6.5,2.5c1.2,4.6,2.6,7.6,4.2,9.2,1.2,1.1,2.8,1.6,4.8,1.3,3.1-.4,5.9-1.4,8.5-3,2.3-1.4,4-3,5.3-4.9,0,0,.2,0,.2,0-.8,7.4-4.5,12-11.1,13.8-1.7.4-3.4.8-5.2,1-11.9,1.6-18.6-3.2-20-14.3s.2-9.6,2.8-12.5c2.4-2.8,6.7-4.9,12.8-6.4,1.5-.3,2.9-.6,4.4-.8,5.2-.7,9.6-.3,13.2,1.1,3.2,1.2,5.2,2.9,5.8,5.1.2.8.4,1.6.5,2.5h0Z"/>
      <path class="cls-10" d="M553,517.3c.3,2.6-1.7,4.8-6.2,6.6-2.6,1.1-5,1.7-7.2,2-4,.5-6.1-.3-6.4-2.5s.4-4.7,2.3-6.6c1.5-1.6,3.4-2.8,5.8-3.8.2,0,.3-.3.3-.5,0-.4-.6-.8-1.6-1.2-1.1-.4-2.4-.5-3.7-.3-2.5.3-4.6,1.3-6.3,3-2.1,2-2.9,4.6-2.5,7.8s1.7,6.5,4,11.6c.2.4,1.2.7,3,.9,2,0,4.5,0,7.5,0,0,1.2-.2,2.6-.4,4.3-.7,0-1.8.2-3.2.4-8.4,1.1-16.6,3.3-24.6,6.4-.7-.8-1.3-2-1.9-3.7,0-.2,0-.4.2-.5,2.1-1.2,3.1-1.8,3.2-1.8.9-.6,1.3-1.3,1.3-2v-5.8c0-3.8-.2-6.7-.5-8.7s-.7-3.4-1.2-3.7c-.7-.4-1.6-.5-2.7-.3s-1.2.2-2.2.6h-.5c0-.3-.3-1.3-.7-2.9-.5-1.7-.7-2.6-.7-2.8s.1-.4.4-.3c1.6.2,3.2.2,4.8,0,3.9-.5,7.8-2.5,11.6-5.8,0,1.5,0,3.4-.2,5.8,2.6-3.1,6.5-5,11.7-5.7s12.1,1.1,15.1,6.2c.9,1.5,1.4,2.8,1.5,3.9v-.6Z"/>
      <path class="cls-10" d="M583.4,533.6c-3.8-.2-7.8,0-12,.5s-9.6,1.9-16.7,4.2c0-1.4.2-3,.3-4.9,2.9-.7,4.7-1.7,5.5-2.9s1.2-3.2,1.5-6.2c.2-2.8.2-5.5-.2-8.1s-1.7-4-4-3.7-1.4.3-2.1.5c-1.3-2.1-2-3.6-2.1-4.6,7.5-1,14.4-3.2,20.6-6.5,0,0,0,.2.2.5v2.2c-.3,6.6-.2,12.1.4,16.4s1,4.9,1.8,5.7,1.2.7,2,.6,1.9-.5,3-1.2c.3-.2.5,0,.6.4.4,1.6.8,3.8,1.3,6.7v.4ZM578.1,494.6c.2,1.2-1.1,2.5-3.8,3.7-2.4,1.1-5,1.8-7.8,2.2s-4.8.1-6.6-.6c-2.1-.9-3.3-2.4-3.5-4.5s2.6-4.5,9-5.4,6.5-.2,9,.8c2.3.9,3.6,2.2,3.8,3.8h-.1Z"/>
      <path class="cls-10" d="M622.9,507.2c.2,1.5.3,3.3.2,5.4,0,3.8-1.2,7-3.1,9.6-2.3,3.1-5.6,5-9.9,5.5s-9.1-.5-12.9-3.5c1.5,4.2,2.4,6.7,2.9,7.7,1.3,3,3,6.2,5,9.5-10.1,2.7-16.7,4.7-19.7,5.7-.3-.9-.5-1.6-.6-2.3s0-1.3.2-1.4c3-1.5,4.4-2.9,4.2-4.2,0,0,0-.6-.5-2.2s-.6-3.5-.9-5.8c-1.1-8.7-1.3-15.8-.5-21.3-1.4,1.2-2.9,1.8-4.3,2s-1.1,0-1.5,0l-1.5-6.7c1.1.2,2.5.2,4.1,0,4.4-.6,8.6-2.3,12.6-5.1-.4,2.8-.5,4.7-.4,5.5,2.9-2.6,6.1-4.3,9.7-5.3,1.8-.5,3.5-.8,5.1-1,3.9-.5,6.9,0,8.8,1.3,1.7,1.2,2.8,3.4,3.2,6.4l-.2.2ZM615.8,511.8c0-.9-1.1-1.5-3-1.8s-4.5-.3-7.6.1-5.1,1.4-7.6,3.1-3.7,3.2-3.5,4.4.8,1.2,2.2,1.5c1.6.4,3.7.4,6.4,0s6.3-1.4,9.1-3,4.2-3,4-4.2h0Z"/>
      <path class="cls-10" d="M668.1,509.8c.2,1.2,0,2.6-.8,4.5-2.2,5.5-8.6,9.2-19.3,11.1-1.5.3-2.5.4-2.7.5-4.3.6-7.5.2-9.7-1-2.7-1.5-4.4-4.4-4.9-8.9s0-10.7,2-17.7c-2.4.4-5.4,1.3-9.1,2.6-.2,0-.4,0-.5-.3,0-.1,0-.6-.3-1.5-.3-2.5-.3-4.5,0-6.1,2.5.7,5.6.9,9.3.6-.3-1.5-.7-3.1-1.4-4.9-.7-1.7-1-2.6-1-2.7v-.3h.2c1.2-.2,4-.7,8.5-1.7,4.4-1,7.8-1.7,10.1-2.3.4,0,.6-.1.6,0,0,0-.5,1.3-1.6,3.7-1.3,2.8-2.2,5.2-2.7,7.3l1.9-.2c4.7-.7,7.1-1.2,7.1-1.6s0-.8,0-1.3c-.2-1.2-1-2.3-2.5-3.1,3.1-2.3,5.2-3.5,6.4-3.8.4.5.7,1.4.9,2.6s0,1.2.2,2.2c0,1,0,1.6.2,2,0,1,.6,2.6,1.5,4.6s1.7,3.7,2.6,5c-.7.5-1.4.9-2.2,1.4-1.1.7-2,1.1-2.6,1.2s-.6,0-.8-.1-.9-1.1-1.9-2.8c-1-1.6-1.9-2.4-2.9-2.4s-3.4.4-8.6,1.1c-.3.3-.5,2.1-.7,5.5-.2,3.7,0,7.1.4,10.2.9,6.5,2.8,9.6,5.7,9.2s3.2-.9,5.1-2c1.8-1.1,2.7-2,2.6-2.6s0-.3-.3-.4c-1.1,0-3.1-.6-5.9-1.4-2.6-1.1-4.1-2.9-4.4-5.4s.4-2.2,1.6-3.1c1.3-1,3.1-1.6,5.5-1.9s3.8-.3,6.2,0c5.1.4,7.8,1.9,8.2,4.6v-.4Z"/>
      <path class="cls-10" d="M654.8,585.3c-3.8-.2-7.8,0-12,.5s-9.6,1.9-16.7,4.2c0-1.4.2-3,.3-4.9,2.9-.7,4.7-1.7,5.5-2.9s1.2-3.2,1.5-6.2c.2-2.8.2-5.5-.2-8.1s-1.7-4-4-3.7-1.4.3-2.1.5c-1.3-2.1-2-3.6-2.1-4.6,7.5-1,14.4-3.2,20.6-6.5,0,0,0,.2.2.5v2.2c-.3,6.6-.2,12.1.4,16.4s1,4.9,1.8,5.7,1.2.7,2,.6,1.9-.5,3-1.2c.3-.2.5,0,.6.4.4,1.6.8,3.8,1.3,6.7v.4ZM649.5,546.3c.2,1.2-1.1,2.5-3.8,3.7-2.4,1.1-5,1.8-7.8,2.2s-4.8,0-6.6-.6c-2.1-.9-3.3-2.4-3.5-4.5s2.6-4.5,9-5.4,6.5-.2,9,.8c2.3.9,3.6,2.2,3.8,3.8h-.1Z"/>
      <path class="cls-10" d="M696.2,567.2c.2,1.2,0,2.6-.8,4.5-2.2,5.5-8.6,9.2-19.3,11.1-1.5.3-2.5.4-2.7.5-4.3.6-7.5.2-9.7-1-2.7-1.5-4.4-4.4-4.9-8.9s0-10.7,2-17.7c-2.4.4-5.4,1.3-9.1,2.6-.2,0-.4,0-.5-.3,0,0,0-.6-.3-1.5-.3-2.5-.3-4.5,0-6.1,2.5.7,5.6.9,9.3.6-.3-1.5-.7-3.1-1.4-4.9-.7-1.7-1-2.6-1-2.7v-.3h.2c1.2-.2,4-.7,8.5-1.7,4.4-1,7.8-1.7,10.1-2.3.4,0,.6,0,.6,0,0,0-.5,1.3-1.6,3.7-1.3,2.8-2.2,5.2-2.7,7.3l1.9-.2c4.7-.7,7.1-1.2,7.1-1.6s0-.8,0-1.3c-.2-1.2-1-2.3-2.5-3.1,3.1-2.3,5.2-3.5,6.4-3.8.4.5.7,1.4.9,2.6s0,1.2.2,2.2c0,1,0,1.6.2,2,0,1,.6,2.6,1.5,4.6s1.7,3.7,2.6,5c-.7.5-1.4.9-2.2,1.4-1.1.7-2,1.1-2.6,1.2s-.6,0-.8,0-.9-1.1-1.9-2.8c-1-1.6-1.9-2.4-2.9-2.4s-3.4.4-8.6,1.1c-.3.3-.5,2.1-.7,5.5-.2,3.7,0,7.1.4,10.2.9,6.5,2.8,9.6,5.7,9.2s3.2-.9,5.1-2c1.8-1.1,2.7-2,2.6-2.6s0-.3-.3-.4c-1.1,0-3.1-.6-5.9-1.4-2.6-1.1-4.1-2.9-4.4-5.4s.4-2.2,1.6-3.1c1.3-1,3.1-1.6,5.5-1.9s3.8-.3,6.2,0c5.1.4,7.8,1.9,8.2,4.6v-.4Z"/>
      <path class="cls-10" d="M715.1,531.1c-.9,3.1-1.4,7.1-1.6,12-.2,4.8,0,9.7.7,14.5s.8,5,1.4,7.4c-1,.4-2.1.9-3.5,1.6-1.5.7-2.7,1.4-3.6,2-2.5-3.8-4.8-8.6-6.8-14.4-1.1-3.3-1.8-6.2-2.1-8.4s-.2-2.6,0-3.4c-2.4.7-4.2,1.3-5.2,1.6-.3-.5-.5-1.6-.7-3.1s0-1,0-1.4,0-.2.3-.2h1c2.3-.3,5.8-1.4,10.3-3.3,4.4-1.8,7.6-3.5,9.7-4.9,0,0,.2,0,.2,0h-.1ZM719.8,573.6c0,1-.8,2.3-2.9,3.6-1.8,1.1-3.7,2.1-5.8,2.7-.8.3-1.5.4-2.2.5-1.8.2-3.3,0-4.5-.8-1.2-.7-1.9-1.7-2.1-2.9s.9-2.7,3.3-3.9c2-1,4.1-1.7,6.2-2s4.2-.2,5.7.4c1.4.5,2.2,1.3,2.3,2.2v.2Z"/>
    </g>
  </g>
  <g class="cls-11">
    <text class="cls-12" transform="translate(-633.3 278.6)"><tspan x="0" y="0">Script it!</tspan></text>
  </g>
</svg>